<svg width="249" height="156" viewBox="0 0 249 156" fill="none" xmlns="http://www.w3.org/2000/svg">
<g clipPath="url(#clip0_42_49190)">
<rect width="249" height="156" rx="10" fill="#CCC9C6"/>
<path d="M39.5969 36.9092C39.8459 34.7965 40.3952 32.6532 40.3153 30.5347C39.1312 -1.63664 55.9761 -20.9728 80.9727 -35.0969C95.06 -43.0592 109.29 -40.492 123.088 -37.0532C165.507 -26.4841 207.699 -14.8213 248.665 1.08C259.632 5.33848 270.022 10.8472 279.179 18.7151C290.369 28.3387 295.439 40.9647 294 56.2507C291.717 80.9282 286.722 105.418 277.071 127.744C263.11 160.074 236.823 175.925 204.213 178.87C173.77 181.609 145.489 174.947 119.329 157.561C101.359 145.623 82.274 135.596 64.1184 123.833C42.2923 109.661 33.8802 89.3251 37.2683 62.5369C38.337 54.0288 39.2758 45.5054 40.2795 36.9896C40.052 36.9628 39.792 36.9321 39.5644 36.9053L39.5969 36.9092Z" fill="#E0DFDD" fill-opacity="0.2"/>
<path d="M86.6685 82.7951C86.2691 81.0323 86.1015 79.1599 85.437 77.4856C75.3694 52.0523 83.3812 31.7895 99.3996 13.3907C108.427 3.01989 120.553 1.04247 132.58 -0.114169C169.553 -3.67223 206.653 -6.28981 243.974 -5.16516C253.965 -4.86259 263.85 -3.39534 273.414 0.311264C285.106 4.8476 292.745 13.5238 295.925 26.1758C301.092 46.5893 304.032 67.6212 302.631 88.2398C300.612 118.094 284.049 138.241 258.764 149.843C235.156 160.666 210.615 163.347 184.733 156.836C166.955 152.367 148.826 149.746 130.949 145.47C109.449 140.305 96.9469 126.4 92.0676 103.983C90.512 96.8649 88.8479 89.7717 87.238 82.6661C87.0482 82.7091 86.8312 82.7583 86.6414 82.8013L86.6685 82.7951Z" fill="#E0DFDD" fill-opacity="0.2"/>
<path d="M140.733 41.3623C140.988 39.7724 141.472 38.169 141.479 36.5643C141.607 12.1965 154.961 -1.89091 174.314 -11.7774C185.221 -17.3509 195.902 -14.9568 206.227 -11.9173C237.971 -2.57491 269.508 7.58725 299.984 20.916C308.142 24.4853 315.825 28.9819 322.499 35.2234C330.656 42.8574 334.089 52.5672 332.514 64.0817C330.003 82.6719 325.446 101.034 317.437 117.611C305.851 141.618 285.466 152.769 260.711 153.959C237.601 155.062 216.425 149.124 197.194 135.144C183.983 125.543 169.869 117.353 156.513 107.88C140.457 96.4677 134.742 80.8208 138.157 60.6696C139.235 54.2692 140.216 47.8531 141.246 41.4448C141.075 41.4173 140.88 41.3858 140.708 41.3583L140.733 41.3623Z" fill="#E0DFDD" fill-opacity="0.2"/>
<path d="M21.0081 128.068C21.0081 127.824 21.0533 127.597 21.1437 127.384C21.2376 127.169 21.3646 126.981 21.5246 126.821C21.6846 126.657 21.8707 126.529 22.0828 126.435C22.2985 126.341 22.5298 126.294 22.7767 126.294C23.0202 126.294 23.2481 126.341 23.4602 126.435C23.6759 126.529 23.8637 126.657 24.0237 126.821C24.1872 126.981 24.3159 127.169 24.4098 127.384C24.5037 127.597 24.5507 127.824 24.5507 128.068C24.5507 128.315 24.5037 128.546 24.4098 128.762C24.3159 128.974 24.1872 129.16 24.0237 129.32C23.8637 129.48 23.6759 129.607 23.4602 129.701C23.2481 129.791 23.0202 129.837 22.7767 129.837C22.5298 129.837 22.2985 129.791 22.0828 129.701C21.8707 129.607 21.6846 129.48 21.5246 129.32C21.3646 129.16 21.2376 128.974 21.1437 128.762C21.0533 128.546 21.0081 128.315 21.0081 128.068ZM21.8585 128.068C21.8585 128.193 21.8828 128.311 21.9315 128.423C21.9802 128.534 22.0463 128.631 22.1298 128.715C22.2133 128.798 22.3107 128.864 22.422 128.913C22.5333 128.962 22.6515 128.986 22.7767 128.986C22.902 128.986 23.0202 128.962 23.1315 128.913C23.2463 128.864 23.3454 128.798 23.4289 128.715C23.5124 128.631 23.5785 128.534 23.6272 128.423C23.6759 128.311 23.7002 128.193 23.7002 128.068C23.7002 127.943 23.6759 127.824 23.6272 127.713C23.5785 127.598 23.5124 127.499 23.4289 127.416C23.3454 127.332 23.2463 127.266 23.1315 127.217C23.0202 127.169 22.902 127.144 22.7767 127.144C22.6515 127.144 22.5333 127.169 22.422 127.217C22.3107 127.266 22.2133 127.332 22.1298 127.416C22.0463 127.499 21.9802 127.598 21.9315 127.713C21.8828 127.824 21.8585 127.943 21.8585 128.068ZM32.0183 123.315C32.0739 123.614 32.1157 123.89 32.1435 124.144C32.1748 124.398 32.1905 124.631 32.1905 124.843C32.1905 125.508 32.0496 126.012 31.7679 126.357C31.6357 126.513 31.4774 126.633 31.2931 126.717C31.1122 126.8 30.9105 126.842 30.6879 126.842C30.6009 126.842 30.5087 126.833 30.4113 126.816C30.3139 126.795 30.2148 126.762 30.1139 126.717C30.0131 126.668 29.9139 126.602 29.8166 126.518C29.7192 126.435 29.627 126.33 29.54 126.205L29.4357 126.362C29.2687 126.55 29.0879 126.692 28.8931 126.79C28.6983 126.887 28.467 126.936 28.1992 126.936C28.067 126.936 27.9522 126.929 27.8548 126.915C27.7574 126.897 27.6548 126.87 27.547 126.831C27.5539 126.877 27.5592 126.918 27.5626 126.957C27.5696 126.995 27.5766 127.035 27.5835 127.077C27.6287 127.41 27.6635 127.75 27.6879 128.094C27.7157 128.438 27.7366 128.781 27.7505 129.122C27.7644 129.463 27.7731 129.8 27.7766 130.134C27.7835 130.468 27.787 130.79 27.787 131.099H26.7487C26.7557 130.957 26.7592 130.809 26.7592 130.656C26.7626 130.499 26.7644 130.351 26.7644 130.212C26.7644 129.711 26.747 129.219 26.7122 128.736C26.6774 128.252 26.6253 127.786 26.5557 127.337C26.4896 126.889 26.4044 126.459 26.3 126.049C26.1957 125.638 26.0739 125.254 25.9348 124.896C25.9279 124.882 25.9174 124.857 25.9035 124.823C25.8966 124.809 25.8913 124.795 25.8879 124.781C25.8322 124.649 25.7713 124.518 25.7053 124.39C25.6426 124.257 25.5713 124.129 25.4913 124.003L26.4357 123.445C26.46 123.487 26.4879 123.537 26.5192 123.597C26.5539 123.656 26.5887 123.72 26.6235 123.79C26.6583 123.859 26.6931 123.932 26.7279 124.009C26.7626 124.082 26.7974 124.153 26.8322 124.223C26.9122 124.39 26.9939 124.565 27.0774 124.75C27.1713 124.965 27.2531 125.146 27.3226 125.292C27.3957 125.438 27.4705 125.557 27.547 125.647C27.6235 125.737 27.7122 125.803 27.8131 125.845C27.9139 125.883 28.0426 125.903 28.1992 125.903C28.3139 125.903 28.4009 125.885 28.46 125.85C28.5226 125.816 28.5835 125.762 28.6426 125.689C28.74 125.577 28.8166 125.417 28.8722 125.209C28.9313 125 28.9644 124.755 28.9713 124.473C28.9713 124.435 28.9696 124.369 28.9661 124.275C28.9626 124.177 28.9574 124.077 28.9505 123.972C28.9435 123.868 28.9366 123.772 28.9296 123.685C28.9261 123.595 28.9226 123.539 28.9192 123.518L29.9522 123.393C29.9522 123.403 29.9522 123.419 29.9522 123.44C29.9522 123.461 29.9539 123.478 29.9574 123.492C29.9644 123.53 29.9713 123.593 29.9783 123.68C29.9887 123.763 29.9974 123.863 30.0044 123.977C30.0253 124.19 30.0531 124.414 30.0879 124.65C30.1261 124.887 30.1731 125.096 30.2287 125.277C30.2739 125.398 30.3192 125.496 30.3644 125.569C30.4096 125.638 30.4531 125.69 30.4948 125.725C30.5366 125.76 30.5731 125.783 30.6044 125.793C30.6392 125.8 30.667 125.803 30.6879 125.803C30.7783 125.803 30.8426 125.793 30.8809 125.772C30.9226 125.748 30.9522 125.723 30.9696 125.699C30.987 125.678 31.0061 125.649 31.027 125.61C31.0513 125.569 31.0722 125.515 31.0896 125.449C31.1105 125.379 31.1279 125.296 31.1418 125.198C31.1557 125.097 31.1626 124.977 31.1626 124.838C31.1626 124.685 31.1505 124.501 31.1261 124.285C31.1018 124.066 31.0618 123.807 31.0061 123.508L32.0183 123.315ZM32.9625 132.388L36.7817 122.47H37.6999L33.8912 132.388H32.9625ZM39.0198 128.068C39.0198 127.824 39.065 127.597 39.1554 127.384C39.2493 127.169 39.3763 126.981 39.5363 126.821C39.6963 126.657 39.8824 126.529 40.0946 126.435C40.3102 126.341 40.5415 126.294 40.7885 126.294C41.0319 126.294 41.2598 126.341 41.4719 126.435C41.6876 126.529 41.8754 126.657 42.0354 126.821C42.1989 126.981 42.3276 127.169 42.4215 127.384C42.5154 127.597 42.5624 127.824 42.5624 128.068C42.5624 128.315 42.5154 128.546 42.4215 128.762C42.3276 128.974 42.1989 129.16 42.0354 129.32C41.8754 129.48 41.6876 129.607 41.4719 129.701C41.2598 129.791 41.0319 129.837 40.7885 129.837C40.5415 129.837 40.3102 129.791 40.0946 129.701C39.8824 129.607 39.6963 129.48 39.5363 129.32C39.3763 129.16 39.2493 128.974 39.1554 128.762C39.065 128.546 39.0198 128.315 39.0198 128.068ZM39.8702 128.068C39.8702 128.193 39.8946 128.311 39.9432 128.423C39.9919 128.534 40.058 128.631 40.1415 128.715C40.225 128.798 40.3224 128.864 40.4337 128.913C40.545 128.962 40.6632 128.986 40.7885 128.986C40.9137 128.986 41.0319 128.962 41.1432 128.913C41.258 128.864 41.3572 128.798 41.4406 128.715C41.5241 128.631 41.5902 128.534 41.6389 128.423C41.6876 128.311 41.7119 128.193 41.7119 128.068C41.7119 127.943 41.6876 127.824 41.6389 127.713C41.5902 127.598 41.5241 127.499 41.4406 127.416C41.3572 127.332 41.258 127.266 41.1432 127.217C41.0319 127.169 40.9137 127.144 40.7885 127.144C40.6632 127.144 40.545 127.169 40.4337 127.217C40.3224 127.266 40.225 127.332 40.1415 127.416C40.058 127.499 39.9919 127.598 39.9432 127.713C39.8946 127.824 39.8702 127.943 39.8702 128.068ZM50.03 123.315C50.0857 123.614 50.1274 123.89 50.1552 124.144C50.1865 124.398 50.2022 124.631 50.2022 124.843C50.2022 125.508 50.0613 126.012 49.7796 126.357C49.6474 126.513 49.4891 126.633 49.3048 126.717C49.1239 126.8 48.9222 126.842 48.6996 126.842C48.6126 126.842 48.5204 126.833 48.4231 126.816C48.3257 126.795 48.2265 126.762 48.1257 126.717C48.0248 126.668 47.9257 126.602 47.8283 126.518C47.7309 126.435 47.6387 126.33 47.5518 126.205L47.4474 126.362C47.2804 126.55 47.0996 126.692 46.9048 126.79C46.71 126.887 46.4787 126.936 46.2109 126.936C46.0787 126.936 45.9639 126.929 45.8665 126.915C45.7691 126.897 45.6665 126.87 45.5587 126.831C45.5657 126.877 45.5709 126.918 45.5744 126.957C45.5813 126.995 45.5883 127.035 45.5952 127.077C45.6404 127.41 45.6752 127.75 45.6996 128.094C45.7274 128.438 45.7483 128.781 45.7622 129.122C45.7761 129.463 45.7848 129.8 45.7883 130.134C45.7952 130.468 45.7987 130.79 45.7987 131.099H44.7604C44.7674 130.957 44.7709 130.809 44.7709 130.656C44.7744 130.499 44.7761 130.351 44.7761 130.212C44.7761 129.711 44.7587 129.219 44.7239 128.736C44.6891 128.252 44.637 127.786 44.5674 127.337C44.5013 126.889 44.4161 126.459 44.3118 126.049C44.2074 125.638 44.0857 125.254 43.9465 124.896C43.9396 124.882 43.9291 124.857 43.9152 124.823C43.9083 124.809 43.9031 124.795 43.8996 124.781C43.8439 124.649 43.7831 124.518 43.717 124.39C43.6544 124.257 43.5831 124.129 43.5031 124.003L44.4474 123.445C44.4718 123.487 44.4996 123.537 44.5309 123.597C44.5657 123.656 44.6004 123.72 44.6352 123.79C44.67 123.859 44.7048 123.932 44.7396 124.009C44.7744 124.082 44.8091 124.153 44.8439 124.223C44.9239 124.39 45.0057 124.565 45.0891 124.75C45.1831 124.965 45.2648 125.146 45.3344 125.292C45.4074 125.438 45.4822 125.557 45.5587 125.647C45.6352 125.737 45.7239 125.803 45.8248 125.845C45.9257 125.883 46.0544 125.903 46.2109 125.903C46.3257 125.903 46.4126 125.885 46.4718 125.85C46.5344 125.816 46.5952 125.762 46.6544 125.689C46.7518 125.577 46.8283 125.417 46.8839 125.209C46.9431 125 46.9761 124.755 46.9831 124.473C46.9831 124.435 46.9813 124.369 46.9778 124.275C46.9744 124.177 46.9691 124.077 46.9622 123.972C46.9552 123.868 46.9483 123.772 46.9413 123.685C46.9378 123.595 46.9344 123.539 46.9309 123.518L47.9639 123.393C47.9639 123.403 47.9639 123.419 47.9639 123.44C47.9639 123.461 47.9657 123.478 47.9691 123.492C47.9761 123.53 47.9831 123.593 47.99 123.68C48.0004 123.763 48.0091 123.863 48.0161 123.977C48.037 124.19 48.0648 124.414 48.0996 124.65C48.1378 124.887 48.1848 125.096 48.2404 125.277C48.2857 125.398 48.3309 125.496 48.3761 125.569C48.4213 125.638 48.4648 125.69 48.5065 125.725C48.5483 125.76 48.5848 125.783 48.6161 125.793C48.6509 125.8 48.6787 125.803 48.6996 125.803C48.79 125.803 48.8544 125.793 48.8926 125.772C48.9344 125.748 48.9639 125.723 48.9813 125.699C48.9987 125.678 49.0178 125.649 49.0387 125.61C49.0631 125.569 49.0839 125.515 49.1013 125.449C49.1222 125.379 49.1396 125.296 49.1535 125.198C49.1674 125.097 49.1744 124.977 49.1744 124.838C49.1744 124.685 49.1622 124.501 49.1378 124.285C49.1135 124.066 49.0735 123.807 49.0178 123.508L50.03 123.315ZM58.0914 128.376C58.0288 128.344 57.9627 128.317 57.8931 128.292C57.834 128.271 57.7627 128.25 57.6792 128.23C57.5992 128.205 57.5105 128.184 57.4131 128.167C57.2601 128.146 57.1018 128.148 56.9383 128.172C56.7644 128.217 56.6183 128.304 56.5001 128.433C56.3818 128.562 56.307 128.708 56.2757 128.871C56.2653 128.951 56.2723 129.047 56.2966 129.158L56.2914 129.143C56.3157 129.237 56.354 129.327 56.4062 129.414C56.4618 129.497 56.5279 129.574 56.6044 129.643C56.681 129.713 56.7662 129.772 56.8601 129.821C56.954 129.866 57.0531 129.896 57.1575 129.91C57.2131 129.917 57.267 129.922 57.3192 129.925C57.3749 129.929 57.4305 129.922 57.4862 129.904C57.6253 129.883 57.7627 129.85 57.8983 129.805C58.034 129.76 58.1557 129.715 58.2636 129.67C58.3888 129.621 58.5088 129.565 58.6236 129.503L58.9731 130.155C58.7575 130.27 58.4879 130.388 58.1644 130.51C57.8444 130.631 57.4531 130.777 56.9905 130.948L55.1331 131.637L54.8723 130.927L56.3331 130.379C56.1418 130.261 55.9783 130.11 55.8427 129.925C55.707 129.741 55.6149 129.543 55.5662 129.33C55.5175 129.15 55.5088 128.96 55.5401 128.762C55.5644 128.605 55.6114 128.457 55.681 128.318C55.7505 128.176 55.8392 128.047 55.947 127.932C56.0549 127.817 56.1783 127.72 56.3175 127.64C56.4566 127.557 56.6062 127.496 56.7662 127.457C57.0236 127.398 57.2775 127.388 57.5279 127.426C57.6427 127.443 57.7523 127.47 57.8566 127.504C57.961 127.536 58.0549 127.565 58.1383 127.593C58.2323 127.631 58.3227 127.67 58.4097 127.708L58.0914 128.376ZM62.7856 131C62.403 131 62.0743 130.955 61.7995 130.864C61.5282 130.774 61.2987 130.635 61.1108 130.447C60.9961 130.332 60.9074 130.209 60.8447 130.077C60.7856 129.944 60.7404 129.814 60.7091 129.685C60.6813 129.557 60.6656 129.435 60.6621 129.32C60.6587 129.202 60.6569 129.101 60.6569 129.017V128.918C60.6569 128.915 60.6587 128.852 60.6621 128.73C60.6656 128.605 60.6674 128.438 60.6674 128.23C60.6708 128.017 60.6726 127.774 60.6726 127.499C60.6726 127.224 60.6708 126.934 60.6674 126.628C60.6674 126.329 60.6639 126.017 60.6569 125.694C60.65 125.37 60.6395 125.057 60.6256 124.755C60.6117 124.452 60.5926 124.174 60.5682 123.92C60.5439 123.663 60.5161 123.452 60.4847 123.289L61.5074 123.101C61.5387 123.278 61.5665 123.496 61.5908 123.753C61.6152 124.01 61.6343 124.29 61.6482 124.593C61.6656 124.896 61.6778 125.212 61.6847 125.543C61.6917 125.87 61.6952 126.19 61.6952 126.503C61.6987 126.809 61.7004 127.103 61.7004 127.384C61.7004 127.666 61.7004 127.917 61.7004 128.136C61.7004 128.355 61.6987 128.536 61.6952 128.678C61.6952 128.821 61.6952 128.906 61.6952 128.934V129.028C61.6917 129.181 61.6969 129.317 61.7108 129.435C61.7247 129.55 61.7717 129.645 61.8517 129.722C62.0082 129.885 62.3039 129.969 62.7387 129.972H62.7856C62.8552 129.972 62.9213 129.986 62.9839 130.014C63.0465 130.042 63.1004 130.08 63.1456 130.129C63.1943 130.174 63.2326 130.228 63.2604 130.29C63.2882 130.353 63.3021 130.419 63.3021 130.489C63.3021 130.635 63.2517 130.757 63.1508 130.854C63.05 130.951 62.9282 131 62.7856 131ZM62.2608 130.494C62.2608 130.348 62.3113 130.226 62.4121 130.129C62.5095 130.028 62.6295 129.977 62.7721 129.977H62.8191C63.233 129.967 63.513 129.925 63.6591 129.852C63.8156 129.772 63.9565 129.65 64.0817 129.487C64.2034 129.33 64.3008 129.137 64.3739 128.908C64.4469 128.675 64.5182 128.405 64.5878 128.099C64.6156 127.967 64.6434 127.835 64.6713 127.703C64.7026 127.57 64.7373 127.44 64.7756 127.311L65.7617 127.614C65.7339 127.677 65.7113 127.744 65.6939 127.817C65.68 127.887 65.6643 127.962 65.6469 128.042H65.6521C65.6382 128.111 65.6243 128.212 65.6104 128.344C65.6 128.473 65.5982 128.612 65.6052 128.762C65.6121 128.911 65.6347 129.063 65.673 129.216C65.7147 129.365 65.7808 129.497 65.8713 129.612L65.9026 129.67C65.9478 129.569 66.0121 129.44 66.0956 129.283C66.1791 129.127 66.2817 128.955 66.4034 128.767C66.5252 128.579 66.666 128.383 66.826 128.177C66.9895 127.972 67.1704 127.772 67.3686 127.577C67.6782 127.282 68.0139 127.04 68.3756 126.852C68.7408 126.661 69.113 126.53 69.4921 126.461C69.9373 126.384 70.3495 126.4 70.7286 126.508C71.1078 126.616 71.4365 126.817 71.7147 127.113C71.92 127.318 72.0695 127.544 72.1634 127.791C72.2608 128.038 72.3008 128.292 72.2834 128.553C72.2417 129.12 72.033 129.595 71.6573 129.977H72.8626C73.0086 129.977 73.1321 130.028 73.233 130.129C73.3339 130.226 73.3843 130.348 73.3843 130.494C73.3843 130.64 73.3339 130.762 73.233 130.859C73.1321 130.953 73.0086 131 72.8626 131L71.5478 131.005C71.1652 131.005 70.8573 130.995 70.6243 130.974C70.3947 130.95 70.2104 130.906 70.0713 130.843C69.706 130.944 69.3373 131.012 68.9652 131.047C68.5965 131.082 68.2486 131.099 67.9217 131.099C67.6086 131.099 67.3356 131.089 67.1026 131.068C66.873 131.047 66.6991 131.031 66.5808 131.021C66.4347 131.003 66.2939 130.979 66.1582 130.948C66.026 130.917 65.9043 130.875 65.793 130.823C65.64 130.757 65.5026 130.675 65.3808 130.577C65.2626 130.48 65.153 130.369 65.0521 130.243C65.0034 130.205 64.9617 130.153 64.9269 130.087C64.7043 130.383 64.4243 130.605 64.0869 130.755C63.7426 130.918 63.3043 131 62.7721 131C62.6295 131 62.5095 130.953 62.4121 130.859C62.3113 130.762 62.2608 130.64 62.2608 130.494ZM66.8834 130.019C67.0713 130.04 67.2765 130.056 67.4991 130.066C67.7217 130.073 67.953 130.073 68.193 130.066C68.433 130.056 68.6747 130.037 68.9182 130.009C69.1617 129.981 69.3965 129.941 69.6226 129.889C69.8521 129.833 70.066 129.763 70.2643 129.68C70.466 129.593 70.6417 129.489 70.7913 129.367C71.0834 129.134 71.24 128.84 71.2608 128.485C71.2643 128.409 71.2573 128.337 71.24 128.271C71.2226 128.202 71.2 128.139 71.1721 128.083C71.1443 128.028 71.113 127.979 71.0782 127.937C71.0434 127.892 71.0121 127.856 70.9843 127.828C70.8834 127.723 70.7756 127.643 70.6608 127.588C70.546 127.532 70.4313 127.494 70.3165 127.473C70.2017 127.452 70.0886 127.445 69.9773 127.452C69.8695 127.456 69.7704 127.464 69.68 127.478C69.4017 127.523 69.1252 127.619 68.8504 127.765C68.5791 127.908 68.3234 128.094 68.0834 128.323C67.9234 128.473 67.7791 128.63 67.6504 128.793C67.5217 128.957 67.4069 129.115 67.306 129.268C67.2086 129.417 67.1252 129.558 67.0556 129.69C66.986 129.823 66.9286 129.932 66.8834 130.019ZM70.6921 124.593L69.8417 125.443L68.986 124.588L69.8365 123.737L70.6921 124.593ZM75.6416 127.134C75.5476 127.134 75.445 127.169 75.3337 127.238C75.2259 127.304 75.125 127.4 75.0311 127.525C74.9372 127.647 74.8589 127.795 74.7963 127.969C74.7372 128.143 74.7076 128.337 74.7076 128.553C74.7076 128.717 74.7842 128.878 74.9372 129.038C75.0937 129.195 75.3163 129.339 75.605 129.471L75.6885 129.508C75.8937 129.417 76.0503 129.296 76.1581 129.143C76.2659 128.986 76.3372 128.821 76.372 128.647C76.4068 128.47 76.4103 128.292 76.3824 128.115C76.3546 127.934 76.3042 127.772 76.2311 127.63C76.1616 127.483 76.0746 127.365 75.9703 127.275C75.8659 127.181 75.7563 127.134 75.6416 127.134ZM72.3389 130.489C72.3389 130.416 72.3529 130.348 72.3807 130.285C72.405 130.223 72.4416 130.169 72.4903 130.123C72.5355 130.078 72.5894 130.043 72.652 130.019C72.7111 129.991 72.7772 129.977 72.8503 129.977C72.972 129.977 73.1024 129.976 73.2416 129.972C73.3842 129.969 73.5233 129.963 73.6589 129.957C73.7946 129.95 73.9233 129.941 74.045 129.93C74.1703 129.92 74.2763 129.91 74.3633 129.899C73.9111 129.503 73.685 129.054 73.685 128.553C73.685 128.23 73.7337 127.922 73.8311 127.63C73.932 127.337 74.0763 127.073 74.2642 126.837C74.452 126.6 74.6659 126.417 74.9059 126.289C75.1494 126.157 75.3981 126.096 75.652 126.106C75.9616 126.12 76.2329 126.193 76.4659 126.325C76.6989 126.457 76.892 126.628 77.045 126.837C77.2016 127.045 77.3163 127.282 77.3894 127.546C77.4624 127.807 77.492 128.075 77.4781 128.35C77.4676 128.621 77.412 128.889 77.3111 129.153C77.2137 129.414 77.0711 129.647 76.8833 129.852C76.9876 129.873 77.1024 129.892 77.2276 129.91C77.3529 129.923 77.4816 129.936 77.6137 129.946C77.7459 129.957 77.8781 129.965 78.0103 129.972C78.1424 129.976 78.2659 129.977 78.3807 129.977C78.5268 129.977 78.6485 130.026 78.7459 130.123C78.8468 130.221 78.8972 130.343 78.8972 130.489C78.8972 130.562 78.8833 130.63 78.8555 130.692C78.8311 130.751 78.7946 130.805 78.7459 130.854C78.7007 130.899 78.6468 130.936 78.5842 130.963C78.5216 130.988 78.4537 131 78.3807 131H78.3337C78.2259 131 78.1094 130.998 77.9842 130.995C77.8589 130.991 77.732 130.986 77.6033 130.979C77.4746 130.969 77.3494 130.958 77.2276 130.948C77.1059 130.937 76.9946 130.923 76.8937 130.906C76.685 130.871 76.4833 130.831 76.2885 130.786C76.0972 130.741 75.9094 130.689 75.725 130.63C75.5616 130.692 75.372 130.746 75.1563 130.791C74.9407 130.837 74.7094 130.875 74.4624 130.906C74.2155 130.937 73.9581 130.962 73.6903 130.979C73.4224 130.993 73.1563 131 72.892 131H72.8503C72.7042 131 72.5824 130.951 72.485 130.854C72.3876 130.757 72.3389 130.635 72.3389 130.489ZM75.3911 124.066L74.5459 124.911L73.6903 124.061L74.5355 123.21L75.3911 124.066ZM77.5303 124.071L76.685 124.922L75.8294 124.066L76.6746 123.221L77.5303 124.071ZM77.8506 130.489C77.8506 130.343 77.901 130.221 78.0019 130.123C78.0993 130.026 78.2193 129.977 78.3619 129.977H78.8993C79.0837 129.984 79.261 129.984 79.4315 129.977C79.6019 129.967 79.7584 129.941 79.901 129.899C80.0437 129.857 80.1689 129.795 80.2767 129.711C80.388 129.624 80.4784 129.508 80.548 129.362C80.6176 129.212 80.6367 129 80.6054 128.725C80.5776 128.447 80.508 128.123 80.3967 127.755C80.3584 127.643 80.3132 127.523 80.261 127.395C80.2124 127.263 80.1637 127.141 80.115 127.03C80.0593 126.897 80.0019 126.767 79.9428 126.638L80.8715 126.179C80.8715 126.183 80.8871 126.219 80.9184 126.289C80.9532 126.355 80.995 126.445 81.0437 126.56C81.0924 126.675 81.1463 126.809 81.2054 126.962C81.2645 127.111 81.3202 127.271 81.3724 127.442C81.6958 128.44 81.7358 129.219 81.4924 129.779C81.2454 130.339 80.8071 130.708 80.1776 130.885C79.9897 130.941 79.8054 130.974 79.6245 130.984C79.4471 130.995 79.2802 131 79.1237 131H78.4089H78.3619C78.2193 131 78.0993 130.951 78.0019 130.854C77.901 130.757 77.8506 130.635 77.8506 130.489ZM80.9706 124.489L80.1202 125.339L79.2645 124.483L80.115 123.633L80.9706 124.489ZM83.9981 122.762C84.1512 124.177 84.2399 125.443 84.2642 126.56C84.3025 128.403 84.2746 129.899 84.1807 131.047L83.1529 130.99C83.2642 129.442 83.299 128.143 83.2573 127.092C83.1877 125.405 83.0938 124.014 82.9755 122.918L83.9981 122.762Z" fill="black"/>
<path d="M167.966 125.631C168.246 125.574 168.514 125.554 168.769 125.57C169.025 125.587 169.25 125.617 169.445 125.662C169.64 125.706 169.796 125.753 169.914 125.802C170.036 125.85 170.103 125.877 170.115 125.881L169.585 126.995C169.585 126.995 169.547 126.981 169.469 126.952C169.392 126.92 169.291 126.891 169.165 126.867C169.043 126.839 168.899 126.82 168.733 126.812C168.571 126.8 168.4 126.812 168.222 126.849C168.051 126.865 167.873 126.918 167.686 127.007C167.503 127.096 167.327 127.212 167.156 127.354C166.986 127.496 166.828 127.658 166.682 127.841C166.536 128.019 166.414 128.206 166.316 128.401C166.223 128.596 166.16 128.792 166.128 128.991C166.095 129.19 166.109 129.377 166.17 129.551C166.223 129.701 166.314 129.821 166.444 129.91C166.578 130 166.734 130.075 166.913 130.136C167.091 130.197 167.284 130.249 167.491 130.294C167.702 130.339 167.909 130.391 168.112 130.452C168.315 130.509 168.508 130.58 168.69 130.665C168.873 130.75 169.027 130.864 169.153 131.006C169.283 131.152 169.374 131.331 169.427 131.542C169.484 131.757 169.486 132.021 169.433 132.333C169.36 132.731 169.181 133.096 168.897 133.429C168.613 133.761 168.236 134.046 167.765 134.281C167.319 134.508 166.811 134.681 166.243 134.798C165.679 134.916 165.065 134.975 164.399 134.975C163.632 134.975 162.952 134.863 162.36 134.64C161.771 134.421 161.289 134.1 160.911 133.678C160.578 133.297 160.343 132.854 160.205 132.351C160.071 131.848 160.041 131.298 160.114 130.702C160.146 130.438 160.191 130.166 160.248 129.886C160.305 129.602 160.365 129.326 160.43 129.058C160.499 128.79 160.568 128.537 160.637 128.297C160.71 128.054 160.775 127.839 160.832 127.652C160.893 127.466 160.942 127.315 160.978 127.202C161.019 127.088 161.043 127.023 161.051 127.007L162.214 127.415C162.031 127.983 161.861 128.549 161.703 129.113C161.544 129.677 161.427 130.255 161.349 130.848C161.329 130.994 161.317 131.152 161.313 131.323C161.313 131.493 161.329 131.666 161.362 131.84C161.398 132.019 161.453 132.193 161.526 132.363C161.603 132.538 161.709 132.7 161.843 132.85C162.098 133.143 162.441 133.362 162.871 133.508C163.305 133.654 163.815 133.727 164.399 133.727C164.975 133.727 165.495 133.68 165.957 133.587C166.42 133.498 166.814 133.376 167.138 133.222C167.467 133.072 167.723 132.899 167.905 132.704C168.088 132.514 168.189 132.315 168.209 132.108C168.218 132.01 168.183 131.929 168.106 131.864C168.029 131.799 167.923 131.743 167.789 131.694C167.656 131.645 167.499 131.601 167.321 131.56C167.146 131.519 166.962 131.471 166.767 131.414C166.576 131.361 166.385 131.296 166.195 131.219C166.004 131.146 165.827 131.055 165.665 130.945C165.503 130.832 165.361 130.696 165.239 130.537C165.121 130.375 165.04 130.18 164.996 129.953C164.931 129.632 164.914 129.314 164.947 128.997C164.983 128.677 165.058 128.368 165.172 128.072C165.286 127.772 165.436 127.49 165.623 127.226C165.809 126.958 166.022 126.719 166.262 126.508C166.505 126.293 166.771 126.11 167.059 125.96C167.347 125.81 167.649 125.7 167.966 125.631ZM173.559 131C173.085 131 172.64 130.901 172.226 130.702C171.816 130.503 171.441 130.227 171.1 129.874L171.788 128.906C172.031 129.133 172.277 129.314 172.525 129.448C172.772 129.582 173.016 129.675 173.255 129.728C173.498 129.781 173.736 129.797 173.967 129.777C174.203 129.752 174.43 129.697 174.649 129.612C174.856 129.531 175.024 129.444 175.154 129.35C175.288 129.253 175.389 129.17 175.458 129.101L173.535 124.475L174.643 124.012C174.773 124.329 174.929 124.708 175.111 125.15C175.266 125.532 175.458 126.003 175.69 126.563C175.921 127.119 176.193 127.768 176.505 128.51C176.587 128.705 176.658 128.884 176.718 129.046C176.783 129.204 176.865 129.34 176.962 129.454C177.059 129.563 177.189 129.651 177.351 129.716C177.514 129.777 177.733 129.807 178.009 129.807C178.175 129.807 178.317 129.864 178.435 129.977C178.553 130.091 178.611 130.233 178.611 130.403C178.611 130.574 178.553 130.716 178.435 130.83C178.317 130.943 178.175 131 178.009 131C177.745 131 177.51 130.98 177.303 130.939C177.1 130.894 176.919 130.836 176.761 130.763C176.607 130.69 176.471 130.604 176.353 130.507C176.236 130.406 176.134 130.3 176.049 130.19C175.927 130.28 175.787 130.373 175.629 130.47C175.475 130.568 175.296 130.657 175.093 130.738C174.866 130.828 174.631 130.894 174.387 130.939C174.144 130.98 173.868 131 173.559 131ZM182.369 129.77C182.69 129.827 182.921 129.756 183.063 129.557C183.172 129.399 183.225 129.17 183.221 128.87C183.217 128.792 183.215 128.719 183.215 128.65L183.209 128.59C183.172 128.228 183.051 127.91 182.844 127.634C182.629 127.342 182.391 127.196 182.132 127.196C181.921 127.196 181.689 127.423 181.438 127.877C181.357 128.023 181.255 128.226 181.133 128.486L181.06 128.632L180.993 128.778C180.945 128.888 180.902 128.977 180.866 129.046C181.47 129.452 181.971 129.693 182.369 129.77ZM185.139 129.807C185.305 129.807 185.447 129.866 185.565 129.983C185.678 130.101 185.735 130.241 185.735 130.403C185.735 130.57 185.678 130.71 185.565 130.823C185.447 130.941 185.305 131 185.139 131C184.542 131 184.088 130.799 183.775 130.397C183.438 130.844 183.016 131.032 182.509 130.963C181.701 130.858 180.916 130.541 180.153 130.014C180.048 130.18 179.877 130.345 179.642 130.507C179.179 130.836 178.632 131 177.999 131C177.832 131 177.692 130.941 177.579 130.823C177.461 130.71 177.402 130.57 177.402 130.403C177.402 130.241 177.461 130.101 177.579 129.983C177.692 129.866 177.832 129.807 177.999 129.807C178.575 129.807 179.084 129.513 179.526 128.924C179.672 128.726 179.821 128.48 179.971 128.188C180.015 128.099 180.07 127.987 180.135 127.853L180.172 127.774L180.208 127.701C180.232 127.652 180.253 127.61 180.269 127.573L180.415 127.293C180.472 127.188 180.525 127.094 180.573 127.013C180.695 126.806 180.819 126.638 180.945 126.508C181.265 126.167 181.661 125.997 182.132 125.997C182.683 125.997 183.16 126.224 183.562 126.678C183.935 127.104 184.171 127.638 184.268 128.279C184.297 128.466 184.305 128.663 184.292 128.87C184.325 129.158 184.416 129.393 184.566 129.576C184.696 129.73 184.887 129.807 185.139 129.807ZM184.572 130.41C184.572 130.328 184.588 130.251 184.621 130.178C184.649 130.105 184.692 130.042 184.749 129.99C184.801 129.933 184.864 129.888 184.937 129.856C185.01 129.823 185.09 129.807 185.175 129.807H186.289C186.832 129.807 187.354 129.756 187.853 129.655C188.356 129.549 188.843 129.413 189.314 129.247C189.785 129.081 190.243 128.892 190.69 128.681C191.136 128.466 191.578 128.251 192.017 128.036L192.126 127.981C191.85 127.883 191.582 127.776 191.323 127.658C191.067 127.541 190.815 127.425 190.568 127.311C190.381 127.222 190.197 127.137 190.014 127.056C189.835 126.974 189.661 126.903 189.49 126.843C189.324 126.778 189.164 126.727 189.01 126.69C188.859 126.65 188.719 126.63 188.59 126.63C188.419 126.63 188.259 126.666 188.109 126.739C187.959 126.812 187.821 126.903 187.695 127.013C187.569 127.123 187.455 127.242 187.354 127.372C187.252 127.498 187.167 127.618 187.098 127.731C187.029 127.841 186.975 127.934 186.934 128.011C186.897 128.084 186.879 128.121 186.879 128.121L185.777 127.622C185.777 127.618 185.792 127.585 185.82 127.524C185.852 127.463 185.897 127.382 185.954 127.281C186.015 127.179 186.086 127.066 186.167 126.94C186.252 126.814 186.35 126.686 186.459 126.557C186.776 126.187 187.112 125.905 187.47 125.71C187.831 125.516 188.204 125.418 188.59 125.418C188.784 125.418 188.983 125.441 189.186 125.485C189.389 125.53 189.594 125.591 189.801 125.668C190.008 125.741 190.217 125.826 190.428 125.923C190.643 126.017 190.86 126.114 191.079 126.216C191.319 126.333 191.56 126.447 191.804 126.557C192.051 126.666 192.299 126.766 192.546 126.855C192.794 126.944 193.041 127.015 193.289 127.068C193.54 127.121 193.79 127.147 194.037 127.147L194.275 128.297C194.092 128.374 193.908 128.458 193.721 128.547C193.538 128.632 193.354 128.719 193.167 128.809C193.212 128.963 193.283 129.095 193.38 129.204C193.481 129.31 193.597 129.401 193.727 129.478C193.857 129.551 193.993 129.61 194.135 129.655C194.281 129.695 194.423 129.728 194.561 129.752C194.699 129.777 194.827 129.793 194.944 129.801C195.066 129.805 195.164 129.807 195.237 129.807H195.273H195.322C195.407 129.807 195.486 129.823 195.559 129.856C195.632 129.888 195.695 129.933 195.748 129.99C195.805 130.042 195.847 130.105 195.876 130.178C195.908 130.251 195.924 130.328 195.924 130.41C195.924 130.58 195.866 130.722 195.748 130.836C195.634 130.945 195.492 131 195.322 131H195.237C194.835 131 194.464 130.963 194.123 130.89C193.782 130.813 193.477 130.704 193.21 130.562C192.942 130.42 192.71 130.247 192.516 130.044C192.325 129.837 192.179 129.604 192.077 129.344C191.664 129.551 191.233 129.754 190.787 129.953C190.341 130.152 189.878 130.33 189.399 130.489C188.92 130.643 188.421 130.769 187.902 130.866C187.386 130.959 186.849 131.006 186.289 131.006L185.175 131C185.004 131 184.862 130.945 184.749 130.836C184.631 130.722 184.572 130.58 184.572 130.41ZM194.729 130.403C194.729 130.237 194.786 130.099 194.899 129.99C195.013 129.876 195.153 129.815 195.319 129.807H195.325C195.666 129.807 195.954 129.752 196.19 129.643C196.425 129.529 196.63 129.381 196.805 129.198C196.979 129.012 197.131 128.801 197.261 128.565C197.391 128.326 197.519 128.08 197.645 127.829C197.75 127.61 197.856 127.401 197.961 127.202C198.067 127.003 198.188 126.82 198.326 126.654C198.692 126.208 199.134 125.984 199.653 125.984C200.266 125.984 200.775 126.23 201.181 126.721C201.506 127.11 201.7 127.599 201.765 128.188C201.806 128.468 201.812 128.742 201.784 129.01C201.755 129.277 201.696 129.531 201.607 129.77C201.489 130.063 201.333 130.304 201.138 130.495C200.944 130.681 200.718 130.809 200.463 130.878C200.008 131 199.495 130.945 198.923 130.714C198.529 130.56 198.117 130.324 197.687 130.008C197.659 130.036 197.638 130.054 197.626 130.063C197.022 130.688 196.255 131 195.325 131H195.319C195.153 131 195.013 130.943 194.899 130.83C194.786 130.712 194.729 130.57 194.729 130.403ZM198.387 129.022C198.756 129.294 199.093 129.49 199.398 129.612C199.702 129.734 199.956 129.766 200.158 129.71C200.227 129.693 200.294 129.647 200.359 129.57C200.424 129.492 200.479 129.393 200.524 129.271C200.572 129.15 200.605 129.01 200.621 128.851C200.641 128.693 200.639 128.523 200.615 128.34C200.611 128.312 200.601 128.263 200.585 128.194C200.568 128.125 200.544 128.048 200.512 127.963C200.483 127.877 200.445 127.79 200.396 127.701C200.347 127.608 200.288 127.524 200.219 127.451C200.15 127.374 200.069 127.311 199.976 127.263C199.883 127.214 199.775 127.19 199.653 127.19C199.572 127.19 199.495 127.214 199.422 127.263C199.353 127.307 199.282 127.378 199.209 127.476C199.14 127.573 199.065 127.695 198.984 127.841C198.907 127.987 198.817 128.159 198.716 128.358L198.387 129.022ZM208.606 121.389C208.785 123.04 208.888 124.517 208.917 125.82C208.961 127.971 208.929 129.716 208.819 131.055L207.62 130.988C207.75 129.182 207.791 127.666 207.742 126.441C207.661 124.473 207.551 122.85 207.413 121.571L208.606 121.389ZM213.438 130.58C213.438 130.933 213.385 131.276 213.28 131.609C213.178 131.941 213.034 132.262 212.848 132.57C212.665 132.879 212.446 133.171 212.19 133.447C211.939 133.727 211.663 133.991 211.362 134.238C211.066 134.486 210.752 134.713 210.419 134.92C210.09 135.131 209.756 135.322 209.415 135.492L208.891 134.415C209.183 134.265 209.473 134.1 209.762 133.922C210.05 133.743 210.322 133.55 210.577 133.343C210.833 133.137 211.068 132.917 211.283 132.686C211.498 132.455 211.679 132.213 211.825 131.962C211.975 131.71 212.087 131.448 212.16 131.177C212.233 130.909 212.255 130.631 212.227 130.343V130.355C212.198 130.123 212.154 129.876 212.093 129.612C212.036 129.344 211.971 129.083 211.898 128.827C211.829 128.571 211.76 128.332 211.691 128.109C211.626 127.881 211.569 127.693 211.521 127.543L212.665 127.19C212.819 127.66 212.969 128.062 213.116 128.395C213.266 128.723 213.418 128.993 213.572 129.204C213.73 129.411 213.895 129.563 214.065 129.661C214.236 129.758 214.422 129.807 214.625 129.807H214.656C214.741 129.807 214.82 129.823 214.893 129.856C214.966 129.888 215.029 129.933 215.082 129.99C215.138 130.042 215.181 130.105 215.209 130.178C215.242 130.251 215.258 130.328 215.258 130.41C215.258 130.58 215.199 130.722 215.082 130.836C214.968 130.945 214.826 131 214.656 131H214.649C214.593 131 214.518 130.998 214.424 130.994C214.335 130.99 214.233 130.974 214.12 130.945C214.01 130.917 213.897 130.872 213.779 130.811C213.661 130.75 213.548 130.665 213.438 130.556V130.58ZM213.964 130.397C213.964 130.316 213.98 130.241 214.012 130.172C214.045 130.099 214.089 130.036 214.146 129.983C214.203 129.927 214.27 129.884 214.347 129.856C214.42 129.823 214.499 129.807 214.585 129.807H214.639C214.883 129.807 215.096 129.805 215.278 129.801C215.465 129.797 215.633 129.791 215.784 129.783C215.934 129.774 216.07 129.764 216.191 129.752C216.317 129.74 216.439 129.726 216.557 129.71C216.252 129.381 216.023 129.058 215.869 128.742C215.719 128.421 215.644 128.113 215.644 127.817C215.644 127.614 215.67 127.401 215.723 127.177C215.78 126.95 215.865 126.733 215.978 126.526C216.096 126.315 216.242 126.12 216.417 125.942C216.591 125.759 216.8 125.609 217.044 125.491L216.563 125.303L217.141 124.207L219.259 125.077C219.637 125.244 220 125.41 220.349 125.577C220.702 125.743 221.027 125.909 221.323 126.076C221.623 126.242 221.887 126.41 222.114 126.581C222.341 126.751 222.518 126.922 222.644 127.092C223.017 127.608 223.204 128.135 223.204 128.675C223.204 129.072 223.098 129.446 222.887 129.795C222.676 130.14 222.358 130.426 221.931 130.653L221.938 130.647C221.824 130.716 221.69 130.775 221.536 130.823C221.382 130.868 221.219 130.905 221.049 130.933C220.882 130.961 220.714 130.984 220.544 131C220.373 131.012 220.217 131.018 220.075 131.018C219.718 131.018 219.371 130.992 219.034 130.939C218.701 130.886 218.362 130.791 218.018 130.653C217.802 130.718 217.559 130.773 217.287 130.817C217.019 130.862 216.737 130.899 216.441 130.927C216.145 130.951 215.842 130.97 215.534 130.982C215.226 130.994 214.927 131 214.639 131H214.585C214.499 131 214.42 130.986 214.347 130.957C214.27 130.925 214.203 130.882 214.146 130.83C214.089 130.773 214.045 130.708 214.012 130.635C213.98 130.562 213.964 130.483 213.964 130.397ZM220.416 127.524C220.416 127.695 220.391 127.879 220.343 128.078C220.294 128.277 220.225 128.478 220.136 128.681C220.051 128.88 219.945 129.077 219.819 129.271C219.693 129.466 219.553 129.645 219.399 129.807C219.529 129.827 219.637 129.839 219.722 129.843C219.807 129.848 219.886 129.85 219.959 129.85H220.251C220.56 129.85 220.828 129.817 221.055 129.752C221.286 129.683 221.475 129.592 221.621 129.478C221.771 129.365 221.883 129.233 221.956 129.083C222.029 128.928 222.065 128.768 222.065 128.602C222.065 128.46 222.029 128.306 221.956 128.139C221.883 127.973 221.773 127.806 221.627 127.64C221.485 127.47 221.307 127.303 221.091 127.141C220.876 126.979 220.625 126.83 220.337 126.697C220.381 126.851 220.406 126.997 220.41 127.135C220.414 127.273 220.416 127.403 220.416 127.524ZM219.168 127.476C219.168 127.354 219.158 127.226 219.138 127.092C219.121 126.954 219.083 126.824 219.022 126.703C218.965 126.577 218.882 126.467 218.772 126.374C218.667 126.277 218.527 126.21 218.352 126.173C218.129 126.128 217.924 126.151 217.738 126.24C217.551 126.325 217.389 126.447 217.251 126.605C217.117 126.763 217.011 126.942 216.934 127.141C216.857 127.34 216.818 127.53 216.818 127.713C216.818 127.883 216.849 128.046 216.91 128.2C216.971 128.354 217.052 128.5 217.153 128.638C217.259 128.772 217.38 128.9 217.518 129.022C217.656 129.139 217.802 129.249 217.957 129.35C218.164 129.257 218.342 129.139 218.492 128.997C218.647 128.855 218.772 128.701 218.87 128.535C218.971 128.364 219.046 128.188 219.095 128.005C219.144 127.823 219.168 127.646 219.168 127.476ZM226.873 127.043C226.987 127.421 227.094 127.794 227.196 128.163C227.236 128.322 227.279 128.486 227.324 128.657C227.368 128.827 227.409 128.997 227.445 129.168C227.486 129.338 227.52 129.505 227.549 129.667C227.577 129.825 227.6 129.973 227.616 130.111C227.62 130.156 227.624 130.207 227.628 130.263C227.632 130.32 227.634 130.383 227.634 130.452C227.634 130.805 227.581 131.148 227.476 131.481C227.374 131.814 227.23 132.132 227.044 132.437C226.861 132.745 226.642 133.039 226.386 133.319C226.135 133.599 225.859 133.861 225.558 134.104C225.262 134.352 224.948 134.581 224.615 134.792C224.286 135.003 223.951 135.192 223.611 135.358L223.081 134.287C223.507 134.076 223.921 133.83 224.323 133.55C224.724 133.274 225.082 132.972 225.394 132.643C225.711 132.315 225.964 131.966 226.155 131.597C226.346 131.227 226.441 130.846 226.441 130.452C226.441 130.432 226.439 130.399 226.435 130.355C226.431 130.306 226.427 130.259 226.423 130.215V130.221C226.411 130.095 226.39 129.959 226.362 129.813C226.333 129.663 226.301 129.511 226.264 129.357C226.228 129.198 226.189 129.042 226.149 128.888C226.108 128.73 226.068 128.577 226.027 128.431C225.93 128.09 225.826 127.75 225.717 127.409L226.873 127.043ZM227.147 124.572L226.155 125.564L225.157 124.566L226.149 123.574L227.147 124.572Z" fill="black"/>
<path d="M49.7038 98.4243C49.3606 98.4243 49.0453 98.3478 48.7577 98.1948C48.4702 98.0417 48.229 97.84 48.0343 97.5896C47.8163 97.84 47.5589 98.0394 47.2621 98.1878C46.9653 98.3409 46.6453 98.4174 46.3021 98.4174C45.9589 98.4174 45.6482 98.3455 45.3699 98.2017C45.0963 98.0626 44.8575 97.8794 44.6534 97.6522C44.454 97.4249 44.2917 97.1699 44.1664 96.887C44.0412 96.6041 43.9577 96.3212 43.916 96.0383V96.0452C43.8928 95.9293 43.8766 95.811 43.8673 95.6904C43.8627 95.5699 43.8604 95.447 43.8604 95.3217C43.8604 95.0713 43.8766 94.8209 43.909 94.5704C43.9415 94.32 43.9856 94.0649 44.0412 93.8052C44.1247 93.4388 44.2337 93.0771 44.3682 92.72C44.5027 92.3629 44.6696 91.9919 44.869 91.607C45.0685 91.222 45.298 90.8139 45.5577 90.3826C45.8175 89.9467 46.1143 89.469 46.4482 88.9496L46.1769 88.6643L47.4012 87.4609C47.763 87.7994 48.083 88.0986 48.3612 88.3583C48.6395 88.618 48.8876 88.8568 49.1056 89.0748C49.3235 89.2881 49.5206 89.4899 49.6969 89.68C49.8731 89.8701 50.0424 90.0649 50.2047 90.2643C50.6546 90.8301 51.0372 91.3959 51.3525 91.9617C51.6725 92.5229 51.9346 93.1212 52.1386 93.7565C52.2035 93.9652 52.2546 94.1901 52.2917 94.4313C52.3288 94.6725 52.3473 94.9159 52.3473 95.1617C52.3473 95.5606 52.2963 95.9525 52.1943 96.3374C52.0922 96.7223 51.9346 97.0678 51.7212 97.3739C51.5079 97.6754 51.2343 97.9212 50.9004 98.1113C50.5711 98.3061 50.1769 98.4104 49.7177 98.4243H49.7038ZM48.8134 94.4383C48.8134 94.6238 48.8227 94.8464 48.8412 95.1061C48.8644 95.3612 48.9085 95.607 48.9734 95.8435C49.0383 96.08 49.1264 96.2817 49.2377 96.4487C49.3537 96.6157 49.5067 96.7038 49.6969 96.713C49.8546 96.6852 50.003 96.6226 50.1421 96.5252C50.2812 96.4278 50.4018 96.3096 50.5038 96.1704C50.6059 96.0267 50.687 95.8713 50.7473 95.7043C50.8076 95.5328 50.8377 95.3635 50.8377 95.1965C50.8377 95.0342 50.8238 94.8696 50.796 94.7026C50.7728 94.531 50.7427 94.3849 50.7056 94.2643C50.5664 93.8516 50.3833 93.4597 50.156 93.0887C49.9288 92.713 49.676 92.3536 49.3977 92.0104C49.1195 91.6672 48.8227 91.338 48.5073 91.0226C48.1966 90.7026 47.8882 90.3919 47.5821 90.0904C47.3456 90.3826 47.1137 90.7049 46.8864 91.0574C46.6592 91.4052 46.4482 91.76 46.2534 92.1217C46.0633 92.4788 45.894 92.8336 45.7456 93.1861C45.6018 93.5386 45.4951 93.8632 45.4256 94.16C45.3885 94.3548 45.356 94.5635 45.3282 94.7861C45.305 95.0087 45.2934 95.2243 45.2934 95.433C45.2934 95.6046 45.3189 95.767 45.3699 95.92C45.4256 96.073 45.4998 96.2075 45.5925 96.3235C45.6853 96.4348 45.7919 96.5252 45.9125 96.5948C46.0331 96.6597 46.163 96.6922 46.3021 96.6922C46.3763 96.6922 46.4575 96.6736 46.5456 96.6365C46.6383 96.5948 46.7288 96.5345 46.8169 96.4557C46.905 96.3722 46.9862 96.2725 47.0604 96.1565C47.1346 96.0359 47.1948 95.8945 47.2412 95.7322C47.2922 95.5559 47.334 95.3913 47.3664 95.2383C47.4035 95.0806 47.4337 94.9414 47.4569 94.8209C47.4801 94.6817 47.4963 94.5496 47.5056 94.4243L48.8134 94.4383ZM60.4036 98.5078C60.2181 98.211 60.0117 97.8446 59.7844 97.4087C59.5618 96.9728 59.3369 96.4904 59.1096 95.9617C58.8824 95.4284 58.6621 94.8603 58.4488 94.2574C58.2354 93.6545 58.0453 93.04 57.8783 92.4139C57.7299 92.9472 57.5607 93.462 57.3705 93.9583C57.185 94.4545 56.974 94.9507 56.7375 95.447C56.5056 95.9432 56.2459 96.4464 55.9583 96.9565C55.6754 97.462 55.3647 97.9907 55.0262 98.5426L53.5583 97.6104C53.9618 96.9612 54.356 96.2817 54.741 95.5722C55.1305 94.8626 55.476 94.1043 55.7775 93.2974C56.0789 92.4904 56.3201 91.6255 56.501 90.7026C56.6865 89.7797 56.7792 88.7803 56.7792 87.7043L58.6714 87.7391C58.6853 88.2307 58.741 88.771 58.8383 89.36C58.9404 89.9443 59.0725 90.5449 59.2349 91.1617C59.4018 91.7786 59.5896 92.3977 59.7983 93.0191C60.0117 93.6359 60.2343 94.2272 60.4662 94.793C60.7027 95.3588 60.9392 95.8806 61.1757 96.3583C61.4169 96.8359 61.6465 97.2417 61.8644 97.5757L60.4036 98.5078ZM64.8732 91.4609C65.1329 91.4609 65.3833 91.44 65.6245 91.3983C65.6245 91.3797 65.6245 91.3426 65.6245 91.287L65.6175 91.2243V91.1548C65.6083 91.0296 65.599 90.9159 65.5897 90.8139C65.5619 90.5078 65.5178 90.2388 65.4575 90.007C65.2813 89.3345 64.9706 88.9983 64.5254 88.9983C64.1033 88.9983 63.7717 89.302 63.5306 89.9096C63.4378 90.1507 63.3845 90.3826 63.3706 90.6052C63.3567 90.8278 63.3914 90.9809 63.4749 91.0643C63.6836 91.273 64.0523 91.4006 64.581 91.447C64.6784 91.4562 64.7758 91.4609 64.8732 91.4609ZM67.2106 92.8383C67.2059 93.5617 67.3196 94.4081 67.5514 95.3774C67.8622 96.4812 68.1288 97.2209 68.3514 97.5965L67.2314 98.5913L67.0854 98.4313C66.719 98.0417 66.392 97.2812 66.1045 96.1496C65.8169 95.0829 65.6616 94.0788 65.6384 93.1374C64.2054 93.2301 63.1526 92.9171 62.4801 92.1983C62.021 91.7113 61.8448 91.0667 61.9514 90.2643C62.0256 89.7403 62.1833 89.251 62.4245 88.7965C62.6981 88.291 63.0436 87.9014 63.461 87.6278C63.8135 87.3959 64.203 87.28 64.6297 87.28C65.2512 87.28 65.7775 87.5003 66.2088 87.9409C66.6726 88.4186 66.974 89.1513 67.1132 90.1391C67.1642 90.4962 67.1943 90.9948 67.2036 91.6348C67.2083 91.8528 67.2106 92.087 67.2106 92.3374C67.2106 92.4255 67.2106 92.5206 67.2106 92.6226V92.7409V92.7896V92.8383ZM75.1346 93.3043C74.7543 93.3043 74.3809 93.2603 74.0146 93.1722C73.6528 93.0841 73.3189 92.9426 73.0128 92.7478C73.1427 93.8284 73.2215 94.8278 73.2493 95.7461C73.2818 96.6597 73.298 97.5154 73.298 98.313H71.538C71.538 97.3901 71.5195 96.4765 71.4824 95.5722C71.4499 94.6632 71.3757 93.7913 71.2598 92.9565C71.1438 92.1217 70.9769 91.338 70.7589 90.6052C70.5456 89.8725 70.258 89.2209 69.8963 88.6504L71.378 87.7183C71.5311 87.9733 71.6725 88.2238 71.8024 88.4696C71.9369 88.7154 72.0575 88.9658 72.1641 89.2209C72.294 88.9704 72.4517 88.7478 72.6372 88.553C72.8227 88.3536 73.0267 88.1843 73.2493 88.0452C73.4766 87.9061 73.7178 87.7971 73.9728 87.7183C74.2279 87.6394 74.4922 87.593 74.7659 87.5791C74.9838 87.5699 75.2157 87.5814 75.4615 87.6139C75.712 87.6464 75.9578 87.7067 76.1989 87.7948C76.4447 87.8783 76.6766 87.9919 76.8946 88.1357C77.1125 88.2794 77.3004 88.458 77.458 88.6713L76.4633 89.9096C76.4633 89.9096 76.4169 89.8794 76.3241 89.8191C76.2314 89.7588 76.1085 89.6939 75.9554 89.6243C75.807 89.5548 75.6354 89.4899 75.4407 89.4296C75.2505 89.3693 75.0557 89.3368 74.8563 89.3322C74.6847 89.3554 74.5038 89.4064 74.3137 89.4852C74.1236 89.5641 73.9496 89.6638 73.792 89.7843C73.6343 89.9003 73.5067 90.0325 73.4093 90.1809C73.312 90.3293 73.2725 90.4846 73.2911 90.647V90.64C73.3236 90.8116 73.4024 90.9577 73.5276 91.0783C73.6528 91.1942 73.8012 91.2893 73.9728 91.3635C74.1491 91.4377 74.3369 91.491 74.5363 91.5235C74.7357 91.5559 74.9259 91.5722 75.1067 91.5722C75.2783 91.5722 75.4569 91.5559 75.6424 91.5235C75.8325 91.491 76.0204 91.447 76.2059 91.3913C76.3914 91.331 76.5699 91.2638 76.7415 91.1896C76.9131 91.1107 77.0685 91.0296 77.2076 90.9461L77.9798 92.3861C77.7433 92.5623 77.5044 92.7107 77.2633 92.8313C77.0267 92.9472 76.7879 93.04 76.5467 93.1096C76.3102 93.1791 76.0714 93.2301 75.8302 93.2626C75.5937 93.2904 75.3618 93.3043 75.1346 93.3043ZM88.0147 97.833C88.0193 97.8145 88.0587 97.7217 88.1329 97.5548C88.2118 97.3832 88.3161 97.1652 88.446 96.9009C88.5805 96.6319 88.7382 96.3328 88.919 96.0035C89.1045 95.6696 89.3063 95.3333 89.5242 94.9948C89.7747 94.6052 90.0135 94.262 90.2408 93.9652C90.4726 93.6684 90.7254 93.418 90.999 93.2139C90.6837 93.2093 90.3845 93.1443 90.1016 93.0191C89.8234 92.8893 89.5799 92.7154 89.3712 92.4974C89.1625 92.2794 88.9955 92.0267 88.8703 91.7391C88.7497 91.447 88.6895 91.1339 88.6895 90.8C88.6895 90.582 88.7173 90.3664 88.7729 90.153C88.8286 89.9351 88.9074 89.7264 89.0095 89.527C89.1161 89.3229 89.2437 89.1304 89.3921 88.9496C89.5451 88.7641 89.7144 88.5971 89.8999 88.4487C90.1735 88.24 90.4819 88.0707 90.8251 87.9409C91.1729 87.811 91.5231 87.7345 91.8755 87.7113C91.9312 87.702 91.9892 87.6974 92.0495 87.6974C92.1144 87.6928 92.1747 87.6904 92.2303 87.6904C92.5782 87.6904 92.9213 87.753 93.2599 87.8783C93.6031 87.9988 93.9463 88.1542 94.2895 88.3443L93.399 89.8678C93.2506 89.7843 93.1184 89.7171 93.0025 89.6661C92.8866 89.6104 92.7776 89.5687 92.6755 89.5409C92.5782 89.5084 92.4854 89.4875 92.3973 89.4783C92.3092 89.4643 92.2211 89.4574 92.1329 89.4574C92.017 89.4574 91.8918 89.469 91.7573 89.4922C91.6274 89.5107 91.4976 89.5386 91.3677 89.5757C91.2425 89.6128 91.1242 89.6545 91.0129 89.7009C90.9016 89.7472 90.8089 89.7936 90.7347 89.84C90.5863 89.9606 90.4611 90.1067 90.359 90.2783C90.2616 90.4452 90.2129 90.6238 90.2129 90.8139C90.2129 90.9113 90.2292 91.011 90.2616 91.113C90.2755 91.1733 90.3242 91.2336 90.4077 91.2939C90.4958 91.3496 90.6025 91.4006 90.7277 91.447C90.8576 91.4933 90.999 91.5304 91.1521 91.5583C91.3097 91.5861 91.4674 91.6 91.6251 91.6C91.8292 91.6046 92.0448 91.593 92.2721 91.5652C92.4993 91.5374 92.7289 91.5003 92.9608 91.4539C93.1973 91.4029 93.4338 91.3472 93.6703 91.287C93.9068 91.222 94.1364 91.1571 94.359 91.0922L94.999 92.6157L94.4773 92.8591C94.0645 93.0168 93.6796 93.2162 93.3225 93.4574C92.9654 93.6939 92.6338 93.9559 92.3277 94.2435C92.0263 94.5264 91.7503 94.8255 91.4999 95.1409C91.2541 95.4516 91.0315 95.76 90.8321 96.0661C90.6373 96.3675 90.468 96.6574 90.3242 96.9357C90.1805 97.2093 90.0599 97.4504 89.9625 97.6591C89.8651 97.8678 89.7909 98.0348 89.7399 98.16C89.6935 98.2899 89.6703 98.3571 89.6703 98.3617L88.0147 97.833ZM104.993 87.6417L105.063 88.0243C105.091 88.1867 105.116 88.3351 105.139 88.4696C105.163 88.5994 105.181 88.7246 105.195 88.8452C105.214 88.9612 105.227 89.0794 105.237 89.2C105.246 89.3159 105.251 89.4412 105.251 89.5757C105.251 90.0441 105.195 90.4429 105.084 90.7722C104.972 91.1014 104.817 91.389 104.618 91.6348C104.423 91.8574 104.207 92.0336 103.971 92.1635C103.739 92.2887 103.461 92.3513 103.136 92.3513C103.02 92.3513 102.892 92.342 102.753 92.3235C102.614 92.3003 102.47 92.2632 102.322 92.2122C102.178 92.1565 102.034 92.0823 101.891 91.9896C101.747 91.8968 101.615 91.7786 101.494 91.6348L101.487 91.6417C101.371 91.7716 101.255 91.8899 101.139 91.9965C101.023 92.0986 100.898 92.1867 100.764 92.2609C100.634 92.3304 100.492 92.3838 100.339 92.4209C100.186 92.458 100.017 92.4765 99.8315 92.4765C99.711 92.4765 99.5973 92.4719 99.4907 92.4626C99.384 92.4487 99.2843 92.4301 99.1915 92.407V92.4487C99.2472 92.8846 99.2913 93.3577 99.3237 93.8678C99.3608 94.3733 99.3887 94.8881 99.4072 95.4122C99.4304 95.9316 99.4443 96.4441 99.4489 96.9496C99.4582 97.4504 99.4629 97.9142 99.4629 98.3409H97.6959C97.7005 98.2481 97.7029 98.1414 97.7029 98.0209C97.7075 97.9003 97.7098 97.7774 97.7098 97.6522C97.7144 97.5223 97.7168 97.3971 97.7168 97.2765C97.7214 97.1559 97.7237 97.0493 97.7237 96.9565C97.7237 96.5484 97.7191 96.1148 97.7098 95.6557C97.7005 95.1965 97.6773 94.7258 97.6402 94.2435C97.6078 93.7612 97.5591 93.2742 97.4942 92.7826C97.4339 92.291 97.3504 91.8087 97.2437 91.3357C97.1371 90.8626 97.0049 90.4081 96.8472 89.9722C96.6942 89.5362 96.5087 89.1328 96.2907 88.7617L97.8768 87.8365C97.9742 87.9988 98.0692 88.1728 98.162 88.3583C98.2547 88.5391 98.3359 88.7107 98.4055 88.873C98.4889 89.0586 98.5678 89.2464 98.642 89.4365C98.7487 89.6684 98.846 89.8655 98.9342 90.0278C99.0223 90.1901 99.1104 90.3246 99.1985 90.4313C99.2913 90.5333 99.3863 90.6075 99.4837 90.6539C99.5858 90.7003 99.7017 90.7235 99.8315 90.7235C99.9846 90.7235 100.105 90.6794 100.193 90.5913C100.286 90.5032 100.353 90.3872 100.395 90.2435C100.441 90.0951 100.472 89.9281 100.485 89.7426C100.499 89.5571 100.511 89.3693 100.52 89.1791C100.52 89.1374 100.518 89.0725 100.513 88.9843C100.513 88.8962 100.509 88.8035 100.499 88.7061C100.495 88.6087 100.49 88.5183 100.485 88.4348C100.481 88.3467 100.476 88.2817 100.472 88.24L102.141 88.0243C102.146 88.2423 102.157 88.4348 102.176 88.6017C102.194 88.7687 102.218 88.9287 102.245 89.0817C102.273 89.2301 102.308 89.3786 102.35 89.527C102.392 89.6707 102.438 89.833 102.489 90.0139H102.482C102.528 90.1577 102.584 90.269 102.649 90.3478C102.719 90.4267 102.786 90.4846 102.851 90.5217C102.916 90.5542 102.974 90.5751 103.025 90.5843C103.08 90.589 103.117 90.5913 103.136 90.5913C103.307 90.5913 103.426 90.5171 103.491 90.3687C103.556 90.2157 103.588 90.0278 103.588 89.8052C103.588 89.6661 103.576 89.5154 103.553 89.353C103.535 89.1861 103.509 89.0214 103.477 88.8591C103.444 88.6922 103.407 88.5322 103.365 88.3791C103.328 88.2214 103.294 88.0823 103.261 87.9617L104.993 87.6417ZM108.078 98.3896C108.078 97.7959 108.073 97.193 108.064 96.5809C108.06 95.9641 108.043 95.3565 108.015 94.7583C107.988 94.1554 107.946 93.5641 107.89 92.9843C107.839 92.4046 107.765 91.8528 107.668 91.3287C107.575 90.8 107.457 90.3038 107.313 89.84C107.174 89.3762 107.002 88.9565 106.798 88.5809L108.266 87.6765C108.479 88.0058 108.658 88.3629 108.802 88.7478C108.945 89.1281 109.066 89.5316 109.163 89.9583C109.265 90.3803 109.351 90.8232 109.421 91.287C109.49 91.7461 109.557 92.2145 109.622 92.6922C109.669 93.0539 109.706 93.4481 109.734 93.8748C109.762 94.2968 109.782 94.7281 109.796 95.1687C109.815 95.6046 109.826 96.0359 109.831 96.4626C109.836 96.8893 109.838 97.2881 109.838 97.6591V97.9513V98.3896H108.078ZM118.229 87.5583C118.266 87.8226 118.296 88.0777 118.32 88.3235C118.347 88.5693 118.361 88.8035 118.361 89.0261C118.361 89.462 118.301 89.8887 118.18 90.3061C118.064 90.7235 117.851 91.1293 117.54 91.5235C117.29 91.8296 116.989 92.0591 116.636 92.2122C116.284 92.3652 115.896 92.4417 115.474 92.4417C115.145 92.4417 114.839 92.407 114.556 92.3374C114.621 92.8243 114.67 93.3299 114.702 93.8539C114.739 94.378 114.767 94.902 114.786 95.4261C114.804 95.9455 114.813 96.4557 114.813 96.9565C114.818 97.4528 114.82 97.9165 114.82 98.3478H113.06C113.06 97.5919 113.051 96.829 113.033 96.0591C113.014 95.2893 112.975 94.5403 112.914 93.8122C112.859 93.0841 112.775 92.393 112.664 91.7391C112.553 91.0806 112.404 90.487 112.219 89.9583V89.9652C112.182 89.8771 112.147 89.7959 112.114 89.7217C112.086 89.6429 112.059 89.5664 112.031 89.4922C111.98 89.3577 111.924 89.2209 111.864 89.0817C111.804 88.9426 111.715 88.778 111.6 88.5878L113.074 87.6417C113.149 87.7623 113.211 87.8713 113.262 87.9687C113.318 88.0661 113.366 88.1588 113.408 88.247C113.45 88.3304 113.487 88.4139 113.52 88.4974C113.557 88.5762 113.594 88.6597 113.631 88.7478C113.663 88.8267 113.696 88.9055 113.728 88.9843C113.761 89.0632 113.795 89.1467 113.833 89.2348C113.93 89.462 114.027 89.6661 114.125 89.847C114.222 90.0278 114.331 90.1832 114.452 90.313C114.577 90.4383 114.721 90.5357 114.883 90.6052C115.045 90.6701 115.242 90.7003 115.474 90.6957C115.762 90.691 115.982 90.6307 116.135 90.5148C116.288 90.3942 116.397 90.2458 116.462 90.0696C116.532 89.8887 116.571 89.6893 116.58 89.4713C116.59 89.2533 116.594 89.04 116.594 88.8313C116.594 88.6458 116.587 88.4835 116.573 88.3443C116.56 88.2052 116.539 88.0452 116.511 87.8643L118.229 87.5583ZM137.368 87.6417L137.438 88.0243C137.466 88.1867 137.491 88.3351 137.514 88.4696C137.538 88.5994 137.556 88.7246 137.57 88.8452C137.589 88.9612 137.602 89.0794 137.612 89.2C137.621 89.3159 137.626 89.4412 137.626 89.5757C137.626 90.0441 137.57 90.4429 137.459 90.7722C137.347 91.1014 137.192 91.389 136.993 91.6348C136.798 91.8574 136.582 92.0336 136.346 92.1635C136.114 92.2887 135.836 92.3513 135.511 92.3513C135.395 92.3513 135.267 92.342 135.128 92.3235C134.989 92.3003 134.845 92.2632 134.697 92.2122C134.553 92.1565 134.409 92.0823 134.266 91.9896C134.122 91.8968 133.99 91.7786 133.869 91.6348L133.862 91.6417C133.746 91.7716 133.63 91.8899 133.514 91.9965C133.398 92.0986 133.273 92.1867 133.139 92.2609C133.009 92.3304 132.867 92.3838 132.714 92.4209C132.561 92.458 132.392 92.4765 132.207 92.4765C132.086 92.4765 131.972 92.4719 131.866 92.4626C131.759 92.4487 131.659 92.4301 131.567 92.407V92.4487C131.622 92.8846 131.666 93.3577 131.699 93.8678C131.736 94.3733 131.764 94.8881 131.782 95.4122C131.805 95.9316 131.819 96.4441 131.824 96.9496C131.833 97.4504 131.838 97.9142 131.838 98.3409H130.071C130.076 98.2481 130.078 98.1414 130.078 98.0209C130.082 97.9003 130.085 97.7774 130.085 97.6522C130.089 97.5223 130.092 97.3971 130.092 97.2765C130.096 97.1559 130.099 97.0493 130.099 96.9565C130.099 96.5484 130.094 96.1148 130.085 95.6557C130.076 95.1965 130.052 94.7258 130.015 94.2435C129.983 93.7612 129.934 93.2742 129.869 92.7826C129.809 92.291 129.725 91.8087 129.619 91.3357C129.512 90.8626 129.38 90.4081 129.222 89.9722C129.069 89.5362 128.884 89.1328 128.666 88.7617L130.252 87.8365C130.349 87.9988 130.444 88.1728 130.537 88.3583C130.63 88.5391 130.711 88.7107 130.78 88.873C130.864 89.0586 130.943 89.2464 131.017 89.4365C131.124 89.6684 131.221 89.8655 131.309 90.0278C131.397 90.1901 131.485 90.3246 131.574 90.4313C131.666 90.5333 131.761 90.6075 131.859 90.6539C131.961 90.7003 132.077 90.7235 132.207 90.7235C132.36 90.7235 132.48 90.6794 132.568 90.5913C132.661 90.5032 132.728 90.3872 132.77 90.2435C132.816 90.0951 132.847 89.9281 132.86 89.7426C132.874 89.5571 132.886 89.3693 132.895 89.1791C132.895 89.1374 132.893 89.0725 132.888 88.9843C132.888 88.8962 132.884 88.8035 132.874 88.7061C132.87 88.6087 132.865 88.5183 132.86 88.4348C132.856 88.3467 132.851 88.2817 132.847 88.24L134.516 88.0243C134.521 88.2423 134.532 88.4348 134.551 88.6017C134.569 88.7687 134.593 88.9287 134.62 89.0817C134.648 89.2301 134.683 89.3786 134.725 89.527C134.767 89.6707 134.813 89.833 134.864 90.0139H134.857C134.903 90.1577 134.959 90.269 135.024 90.3478C135.094 90.4267 135.161 90.4846 135.226 90.5217C135.291 90.5542 135.349 90.5751 135.4 90.5843C135.455 90.589 135.492 90.5913 135.511 90.5913C135.682 90.5913 135.801 90.5171 135.866 90.3687C135.931 90.2157 135.963 90.0278 135.963 89.8052C135.963 89.6661 135.951 89.5154 135.928 89.353C135.91 89.1861 135.884 89.0214 135.852 88.8591C135.819 88.6922 135.782 88.5322 135.74 88.3791C135.703 88.2214 135.669 88.0823 135.636 87.9617L137.368 87.6417ZM143.994 93.3043C143.614 93.3043 143.24 93.2603 142.874 93.1722C142.512 93.0841 142.178 92.9426 141.872 92.7478C142.002 93.8284 142.081 94.8278 142.109 95.7461C142.141 96.6597 142.157 97.5154 142.157 98.313H140.397C140.397 97.3901 140.379 96.4765 140.342 95.5722C140.309 94.6632 140.235 93.7913 140.119 92.9565C140.003 92.1217 139.836 91.338 139.618 90.6052C139.405 89.8725 139.117 89.2209 138.756 88.6504L140.237 87.7183C140.39 87.9733 140.532 88.2238 140.662 88.4696C140.796 88.7154 140.917 88.9658 141.024 89.2209C141.153 88.9704 141.311 88.7478 141.497 88.553C141.682 88.3536 141.886 88.1843 142.109 88.0452C142.336 87.9061 142.577 87.7971 142.832 87.7183C143.087 87.6394 143.352 87.593 143.625 87.5791C143.843 87.5699 144.075 87.5814 144.321 87.6139C144.571 87.6464 144.817 87.7067 145.058 87.7948C145.304 87.8783 145.536 87.9919 145.754 88.1357C145.972 88.2794 146.16 88.458 146.317 88.6713L145.323 89.9096C145.323 89.9096 145.276 89.8794 145.184 89.8191C145.091 89.7588 144.968 89.6939 144.815 89.6243C144.666 89.5548 144.495 89.4899 144.3 89.4296C144.11 89.3693 143.915 89.3368 143.716 89.3322C143.544 89.3554 143.363 89.4064 143.173 89.4852C142.983 89.5641 142.809 89.6638 142.651 89.7843C142.494 89.9003 142.366 90.0325 142.269 90.1809C142.171 90.3293 142.132 90.4846 142.15 90.647V90.64C142.183 90.8116 142.262 90.9577 142.387 91.0783C142.512 91.1942 142.661 91.2893 142.832 91.3635C143.008 91.4377 143.196 91.491 143.396 91.5235C143.595 91.5559 143.785 91.5722 143.966 91.5722C144.138 91.5722 144.316 91.5559 144.502 91.5235C144.692 91.491 144.88 91.447 145.065 91.3913C145.251 91.331 145.429 91.2638 145.601 91.1896C145.772 91.1107 145.928 91.0296 146.067 90.9461L146.839 92.3861C146.603 92.5623 146.364 92.7107 146.123 92.8313C145.886 92.9472 145.647 93.04 145.406 93.1096C145.17 93.1791 144.931 93.2301 144.69 93.2626C144.453 93.2904 144.221 93.3043 143.994 93.3043ZM153.798 98.4243C153.454 98.4243 153.139 98.3478 152.851 98.1948C152.564 98.0417 152.323 97.84 152.128 97.5896C151.91 97.84 151.653 98.0394 151.356 98.1878C151.059 98.3409 150.739 98.4174 150.396 98.4174C150.053 98.4174 149.742 98.3455 149.464 98.2017C149.19 98.0626 148.951 97.8794 148.747 97.6522C148.548 97.4249 148.385 97.1699 148.26 96.887C148.135 96.6041 148.051 96.3212 148.01 96.0383V96.0452C147.987 95.9293 147.97 95.811 147.961 95.6904C147.956 95.5699 147.954 95.447 147.954 95.3217C147.954 95.0713 147.97 94.8209 148.003 94.5704C148.035 94.32 148.079 94.0649 148.135 93.8052C148.218 93.4388 148.327 93.0771 148.462 92.72C148.596 92.3629 148.763 91.9919 148.963 91.607C149.162 91.222 149.392 90.8139 149.651 90.3826C149.911 89.9467 150.208 89.469 150.542 88.9496L150.271 88.6643L151.495 87.4609C151.857 87.7994 152.177 88.0986 152.455 88.3583C152.733 88.618 152.981 88.8568 153.199 89.0748C153.417 89.2881 153.614 89.4899 153.791 89.68C153.967 89.8701 154.136 90.0649 154.298 90.2643C154.748 90.8301 155.131 91.3959 155.446 91.9617C155.766 92.5229 156.028 93.1212 156.232 93.7565C156.297 93.9652 156.348 94.1901 156.385 94.4313C156.423 94.6725 156.441 94.9159 156.441 95.1617C156.441 95.5606 156.39 95.9525 156.288 96.3374C156.186 96.7223 156.028 97.0678 155.815 97.3739C155.602 97.6754 155.328 97.9212 154.994 98.1113C154.665 98.3061 154.271 98.4104 153.811 98.4243H153.798ZM152.907 94.4383C152.907 94.6238 152.916 94.8464 152.935 95.1061C152.958 95.3612 153.002 95.607 153.067 95.8435C153.132 96.08 153.22 96.2817 153.331 96.4487C153.447 96.6157 153.6 96.7038 153.791 96.713C153.948 96.6852 154.097 96.6226 154.236 96.5252C154.375 96.4278 154.496 96.3096 154.598 96.1704C154.7 96.0267 154.781 95.8713 154.841 95.7043C154.901 95.5328 154.931 95.3635 154.931 95.1965C154.931 95.0342 154.918 94.8696 154.89 94.7026C154.867 94.531 154.836 94.3849 154.799 94.2643C154.66 93.8516 154.477 93.4597 154.25 93.0887C154.023 92.713 153.77 92.3536 153.491 92.0104C153.213 91.6672 152.916 91.338 152.601 91.0226C152.29 90.7026 151.982 90.3919 151.676 90.0904C151.439 90.3826 151.207 90.7049 150.98 91.0574C150.753 91.4052 150.542 91.76 150.347 92.1217C150.157 92.4788 149.988 92.8336 149.839 93.1861C149.696 93.5386 149.589 93.8632 149.519 94.16C149.482 94.3548 149.45 94.5635 149.422 94.7861C149.399 95.0087 149.387 95.2243 149.387 95.433C149.387 95.6046 149.413 95.767 149.464 95.92C149.519 96.073 149.594 96.2075 149.686 96.3235C149.779 96.4348 149.886 96.5252 150.006 96.5948C150.127 96.6597 150.257 96.6922 150.396 96.6922C150.47 96.6922 150.551 96.6736 150.639 96.6365C150.732 96.5948 150.823 96.5345 150.911 96.4557C150.999 96.3722 151.08 96.2725 151.154 96.1565C151.228 96.0359 151.289 95.8945 151.335 95.7322C151.386 95.5559 151.428 95.3913 151.46 95.2383C151.497 95.0806 151.527 94.9414 151.551 94.8209C151.574 94.6817 151.59 94.5496 151.599 94.4243L152.907 94.4383ZM157.499 97.833C157.504 97.8145 157.543 97.7217 157.617 97.5548C157.696 97.3832 157.8 97.1652 157.93 96.9009C158.065 96.6319 158.223 96.3328 158.403 96.0035C158.589 95.6696 158.791 95.3333 159.009 94.9948C159.259 94.6052 159.498 94.262 159.725 93.9652C159.957 93.6684 160.21 93.418 160.483 93.2139C160.168 93.2093 159.869 93.1443 159.586 93.0191C159.308 92.8893 159.064 92.7154 158.856 92.4974C158.647 92.2794 158.48 92.0267 158.355 91.7391C158.234 91.447 158.174 91.1339 158.174 90.8C158.174 90.582 158.202 90.3664 158.257 90.153C158.313 89.9351 158.392 89.7264 158.494 89.527C158.6 89.3229 158.728 89.1304 158.876 88.9496C159.029 88.7641 159.199 88.5971 159.384 88.4487C159.658 88.24 159.966 88.0707 160.309 87.9409C160.657 87.811 161.007 87.7345 161.36 87.7113C161.416 87.702 161.474 87.6974 161.534 87.6974C161.599 87.6928 161.659 87.6904 161.715 87.6904C162.063 87.6904 162.406 87.753 162.744 87.8783C163.087 87.9988 163.431 88.1542 163.774 88.3443L162.883 89.8678C162.735 89.7843 162.603 89.7171 162.487 89.6661C162.371 89.6104 162.262 89.5687 162.16 89.5409C162.063 89.5084 161.97 89.4875 161.882 89.4783C161.794 89.4643 161.705 89.4574 161.617 89.4574C161.501 89.4574 161.376 89.469 161.242 89.4922C161.112 89.5107 160.982 89.5386 160.852 89.5757C160.727 89.6128 160.609 89.6545 160.497 89.7009C160.386 89.7472 160.293 89.7936 160.219 89.84C160.071 89.9606 159.945 90.1067 159.843 90.2783C159.746 90.4452 159.697 90.6238 159.697 90.8139C159.697 90.9113 159.714 91.011 159.746 91.113C159.76 91.1733 159.809 91.2336 159.892 91.2939C159.98 91.3496 160.087 91.4006 160.212 91.447C160.342 91.4933 160.483 91.5304 160.636 91.5583C160.794 91.5861 160.952 91.6 161.109 91.6C161.314 91.6046 161.529 91.593 161.756 91.5652C161.984 91.5374 162.213 91.5003 162.445 91.4539C162.682 91.4029 162.918 91.3472 163.155 91.287C163.391 91.222 163.621 91.1571 163.843 91.0922L164.483 92.6157L163.962 92.8591C163.549 93.0168 163.164 93.2162 162.807 93.4574C162.45 93.6939 162.118 93.9559 161.812 94.2435C161.511 94.5264 161.235 94.8255 160.984 95.1409C160.738 95.4516 160.516 95.76 160.316 96.0661C160.122 96.3675 159.952 96.6574 159.809 96.9357C159.665 97.2093 159.544 97.4504 159.447 97.6591C159.349 97.8678 159.275 98.0348 159.224 98.16C159.178 98.2899 159.155 98.3571 159.155 98.3617L157.499 97.833ZM178.152 98.3478C178.152 97.6336 178.111 96.9565 178.027 96.3165C177.944 95.6719 177.828 95.0574 177.679 94.473C177.531 93.8841 177.355 93.3252 177.151 92.7965C176.947 92.2632 176.724 91.753 176.483 91.2661C176.246 90.7745 175.994 90.3014 175.725 89.847C175.46 89.3878 175.194 88.9426 174.925 88.5113L176.392 87.5722C176.74 88.1472 177.051 88.7107 177.325 89.2626C177.603 89.8099 177.851 90.3548 178.069 90.8974C178.292 91.44 178.489 91.9849 178.66 92.5322C178.832 93.0794 178.985 93.6383 179.119 94.2087C179.286 93.5641 179.472 92.9101 179.676 92.247C179.885 91.5791 180.098 90.9461 180.316 90.3478C180.538 89.7449 180.759 89.1977 180.977 88.7061C181.195 88.2145 181.399 87.8203 181.589 87.5235L183.05 88.4626C182.892 88.7177 182.73 89.0099 182.563 89.3391C182.396 89.6684 182.229 90.0278 182.062 90.4174C181.895 90.8023 181.728 91.2104 181.561 91.6417C181.394 92.073 181.229 92.5159 181.067 92.9704C180.696 94.0186 180.411 94.9948 180.212 95.8991C180.017 96.8035 179.915 97.6197 179.905 98.3478H178.152ZM189.669 98.5078C189.484 98.211 189.277 97.8446 189.05 97.4087C188.827 96.9728 188.603 96.4904 188.375 95.9617C188.148 95.4284 187.928 94.8603 187.714 94.2574C187.501 93.6545 187.311 93.04 187.144 92.4139C186.996 92.9472 186.826 93.462 186.636 93.9583C186.451 94.4545 186.24 94.9507 186.003 95.447C185.771 95.9432 185.512 96.4464 185.224 96.9565C184.941 97.462 184.63 97.9907 184.292 98.5426L182.824 97.6104C183.227 96.9612 183.622 96.2817 184.007 95.5722C184.396 94.8626 184.742 94.1043 185.043 93.2974C185.345 92.4904 185.586 91.6255 185.767 90.7026C185.952 89.7797 186.045 88.7803 186.045 87.7043L187.937 87.7391C187.951 88.2307 188.007 88.771 188.104 89.36C188.206 89.9443 188.338 90.5449 188.5 91.1617C188.667 91.7786 188.855 92.3977 189.064 93.0191C189.277 93.6359 189.5 94.2272 189.732 94.793C189.968 95.3588 190.205 95.8806 190.441 96.3583C190.683 96.8359 190.912 97.2417 191.13 97.5757L189.669 98.5078ZM194.139 91.4609C194.399 91.4609 194.649 91.44 194.89 91.3983C194.89 91.3797 194.89 91.3426 194.89 91.287L194.883 91.2243V91.1548C194.874 91.0296 194.865 90.9159 194.855 90.8139C194.828 90.5078 194.783 90.2388 194.723 90.007C194.547 89.3345 194.236 88.9983 193.791 88.9983C193.369 88.9983 193.037 89.302 192.796 89.9096C192.703 90.1507 192.65 90.3826 192.636 90.6052C192.622 90.8278 192.657 90.9809 192.741 91.0643C192.949 91.273 193.318 91.4006 193.847 91.447C193.944 91.4562 194.041 91.4609 194.139 91.4609ZM196.476 92.8383C196.472 93.5617 196.585 94.4081 196.817 95.3774C197.128 96.4812 197.394 97.2209 197.617 97.5965L196.497 98.5913L196.351 98.4313C195.985 98.0417 195.658 97.2812 195.37 96.1496C195.083 95.0829 194.927 94.0788 194.904 93.1374C193.471 93.2301 192.418 92.9171 191.746 92.1983C191.287 91.7113 191.11 91.0667 191.217 90.2643C191.291 89.7403 191.449 89.251 191.69 88.7965C191.964 88.291 192.309 87.9014 192.727 87.6278C193.079 87.3959 193.469 87.28 193.895 87.28C194.517 87.28 195.043 87.5003 195.474 87.9409C195.938 88.4186 196.24 89.1513 196.379 90.1391C196.43 90.4962 196.46 90.9948 196.469 91.6348C196.474 91.8528 196.476 92.087 196.476 92.3374C196.476 92.4255 196.476 92.5206 196.476 92.6226V92.7409V92.7896V92.8383ZM201.172 94.6191C201.172 94.7768 201.203 94.9252 201.263 95.0643C201.323 95.1988 201.404 95.3171 201.506 95.4191C201.608 95.5212 201.727 95.6023 201.861 95.6626C202 95.7229 202.149 95.753 202.306 95.753C202.464 95.753 202.61 95.7229 202.745 95.6626C202.884 95.6023 203.004 95.5212 203.106 95.4191C203.213 95.3171 203.296 95.1988 203.357 95.0643C203.417 94.9252 203.447 94.7768 203.447 94.6191C203.447 94.4614 203.417 94.3154 203.357 94.1809C203.296 94.0417 203.213 93.9212 203.106 93.8191C203.004 93.7125 202.884 93.629 202.745 93.5687C202.61 93.5084 202.464 93.4783 202.306 93.4783C202.149 93.4783 202 93.5084 201.861 93.5687C201.727 93.629 201.608 93.7125 201.506 93.8191C201.404 93.9212 201.323 94.0417 201.263 94.1809C201.203 94.3154 201.172 94.4614 201.172 94.6191ZM199.795 94.6191C199.795 94.2759 199.86 93.9513 199.99 93.6452C200.124 93.3391 200.303 93.0725 200.525 92.8452C200.753 92.6133 201.019 92.4325 201.325 92.3026C201.631 92.1681 201.958 92.1009 202.306 92.1009C202.649 92.1009 202.974 92.1681 203.28 92.3026C203.586 92.4325 203.853 92.6133 204.08 92.8452C204.312 93.0725 204.493 93.3391 204.623 93.6452C204.757 93.9513 204.825 94.2759 204.825 94.6191C204.825 94.967 204.757 95.2939 204.623 95.6C204.493 95.9061 204.312 96.1728 204.08 96.4C203.853 96.6226 203.586 96.8012 203.28 96.9357C202.974 97.0655 202.649 97.1304 202.306 97.1304C201.958 97.1304 201.631 97.0655 201.325 96.9357C201.019 96.8012 200.753 96.6226 200.525 96.4C200.303 96.1728 200.124 95.9061 199.99 95.6C199.86 95.2939 199.795 94.967 199.795 94.6191Z" fill="black"/>
<path d="M193.25 58.1166C193.758 57.7666 194.225 57.3499 194.733 56.9999C195.575 56.2666 196.483 55.5999 197.217 54.7499C197.467 54.4249 197.742 54.1166 197.933 53.7499C198.058 53.5416 198.267 53.3499 198.242 53.0833C198.167 53.1083 198.108 53.1583 198.058 53.2166C197.617 53.7083 197.158 54.1749 196.683 54.6249C196.367 54.9416 196.025 55.2416 195.675 55.5166C194.733 56.3416 193.717 57.0833 192.775 57.9083C192.408 58.1999 192.1 58.5999 191.992 59.0666C192.267 58.9583 192.458 58.7333 192.692 58.5666C192.883 58.4166 193.075 58.2749 193.258 58.1166H193.25Z" fill="#004B84"/>
<path d="M187.866 64.4667C188.075 64.2 188.216 63.8833 188.358 63.5667C188.558 63.175 188.641 62.7417 188.725 62.3167C188.808 61.6833 188.875 61.05 188.941 60.4167C188.95 60.275 189.008 60.1417 188.966 60C188.891 60 188.866 60.0917 188.833 60.1417C188.666 60.5167 188.508 60.9 188.35 61.2833C188.2 61.5917 188.225 61.9417 188.183 62.275C188.066 63.0417 187.891 63.8 187.675 64.5417C187.75 64.5417 187.825 64.5417 187.866 64.475V64.4667Z" fill="#004B84"/>
<path d="M196.917 54.0249C196.983 53.9582 197.033 53.8832 197.042 53.7832C196.825 53.8915 196.65 54.0665 196.45 54.2082C196.258 54.3999 196.025 54.5582 195.842 54.7582C195.667 54.9415 195.442 55.0999 195.383 55.3582C195.95 54.9832 196.458 54.5165 196.917 54.0165V54.0249Z" fill="#004B84"/>
<path d="M225.775 56.1167C224.841 56.9667 223.875 57.775 222.883 58.5417C222.433 58.8917 221.975 59.2334 221.633 59.6917C220.933 60.65 220.875 61.975 220.116 62.8917C219.683 63.4084 219.075 63.7417 218.458 64.0084C216.458 64.8667 214.258 65.15 212.083 65.2917C210.241 65.4083 208.35 65.4334 206.55 64.9584C206.45 64.9334 206.35 64.9083 206.258 64.875C206.15 64.8417 206.083 64.7833 206.033 64.875C205.966 64.9917 206.008 65.275 206.008 65.4084C206.016 65.7417 206.1 66.0917 206.366 66.3167C206.6 66.5084 206.925 66.5584 207.225 66.5917C210.225 66.9083 213.291 66.6417 216.191 65.8C217.841 65.325 219.541 64.5917 220.508 63.1584C220.358 63.8584 220.308 64.5834 220.35 65.3C220.375 65.7 220.541 66.2084 220.95 66.225C221.225 66.2417 221.441 66.0084 221.583 65.775C221.858 65.325 221.991 64.7917 221.966 64.2584C221.875 64.55 221.725 64.8917 221.416 64.9167C221.191 64.9417 220.991 64.7667 220.908 64.5584C220.825 64.35 220.833 64.1167 220.85 63.8917C220.925 62.8083 221.108 61.7334 221.383 60.675C221.416 60.5417 221.458 60.4 221.525 60.2834C221.633 60.0917 221.816 59.9667 222 59.8333C223.366 58.85 224.7 57.8 225.933 56.6417C226.6 56.0167 227.266 55.3167 227.516 54.4333C226.95 55.0083 226.366 55.5667 225.775 56.1084V56.1167Z" fill="#004B84"/>
<path d="M199.65 57.3249C199.516 57.5166 199.391 57.7166 199.25 57.8999C198.966 58.2416 198.725 58.6083 198.458 58.9583C198.191 59.2916 197.933 59.6416 197.666 59.9749C197.433 60.2499 197.191 60.5249 196.975 60.8166C196.283 61.5916 195.625 62.3999 194.866 63.1166C194.916 62.6416 194.983 62.1749 195.058 61.6999C195.108 61.1166 195.266 60.5416 195.233 59.9499C195.141 60.0249 195.116 60.1499 195.066 60.2583C194.916 60.6583 194.716 61.0416 194.666 61.4749C194.5 62.6999 194.308 63.9249 194.183 65.1499C194.158 65.3583 194.208 65.5666 194.25 65.7666C194.291 65.9666 194.441 66.1249 194.566 66.2833C194.85 66.5333 195.308 66.4749 195.591 66.2582C195.858 66.0332 196.075 65.7582 196.216 65.4416C196.466 64.8166 196.708 64.1416 196.591 63.4583C196.541 63.3083 196.433 63.1916 196.316 63.0916C196.116 62.9832 195.875 62.9833 195.65 62.9916C195.733 62.8583 195.85 62.7416 195.958 62.6249C196.608 61.8999 197.258 61.1666 197.875 60.4166C198.25 59.9666 198.591 59.4916 198.95 59.0333C199.141 58.7333 199.375 58.4583 199.525 58.1249C199.683 57.8499 199.816 57.5333 199.775 57.2083C199.725 57.2333 199.675 57.2666 199.65 57.3249ZM195.983 64.2999C195.983 64.2999 196.033 64.3416 196.058 64.3666C196.175 64.4999 196.191 64.7166 196.1 64.8666C196.033 64.9666 195.925 65.0332 195.816 65.0832C195.625 65.1582 195.416 65.1916 195.208 65.1499C195.083 65.1333 194.966 65.0832 194.875 65.0082C194.783 64.9249 194.716 64.8082 194.716 64.6832C194.716 64.5832 194.766 64.4833 194.841 64.4083C195.083 64.1499 195.466 64.0999 195.791 64.1999C195.866 64.2249 195.933 64.2499 195.991 64.2999H195.983Z" fill="#004B84"/>
<path d="M220.967 58.95C221.033 59.0083 221.133 59.0333 221.208 58.975C221.433 58.8 221.567 58.5333 221.65 58.2666C221.675 58.0916 221.683 57.8916 221.558 57.75C221.433 57.6166 221.308 57.475 221.15 57.375C221.108 57.3583 221.05 57.2916 221.008 57.3333C220.783 57.6083 220.683 57.9583 220.517 58.2666C220.492 58.3416 220.408 58.4416 220.475 58.5166C220.625 58.675 220.8 58.8083 220.967 58.95Z" fill="#004B84"/>
<path d="M223.3 69.0166C223.366 69.075 223.466 69.1 223.541 69.0416C223.766 68.8666 223.9 68.6 223.983 68.3333C224.008 68.1583 224.016 67.9583 223.891 67.8166C223.766 67.6833 223.641 67.5416 223.483 67.4416C223.441 67.425 223.383 67.3583 223.341 67.4C223.116 67.675 223.016 68.025 222.85 68.3333C222.825 68.4083 222.741 68.5083 222.808 68.5833C222.958 68.7416 223.133 68.875 223.3 69.0166Z" fill="#004B84"/>
<path d="M203.025 63.2333C202.941 63.0749 202.825 62.9499 202.691 62.8333C202.583 62.7499 202.441 62.6833 202.308 62.7416C202.116 62.7999 202.033 62.9999 201.925 63.1583C201.766 63.3916 201.666 63.6583 201.616 63.9333C201.6 64.0999 201.733 64.2833 201.916 64.2833C202.083 64.3166 202.225 64.2166 202.375 64.1833C202.491 64.2083 202.641 64.3333 202.591 64.4666C202.433 64.6999 202.191 64.8916 201.908 64.9166C201.675 64.9249 201.408 64.9749 201.2 64.8333C200.891 64.6583 200.741 64.2749 200.808 63.9333C200.833 63.0249 201.016 62.1333 201.116 61.2333C201.15 61.0333 201.208 60.8416 201.208 60.6416C201.116 60.6583 201.1 60.7499 201.075 60.8166C200.966 61.0999 200.816 61.3666 200.716 61.6583C200.616 61.8583 200.633 62.0916 200.591 62.3083C200.466 63.0499 200.4 63.8083 200.325 64.5583C200.3 64.8666 200.258 65.1833 200.358 65.4833C200.433 65.6833 200.483 65.9249 200.675 66.0499C200.85 66.1916 201.091 66.2083 201.308 66.2166C201.558 66.2166 201.791 66.0999 201.991 65.9666C202.258 65.7333 202.475 65.4499 202.65 65.1499C202.85 64.7666 203.033 64.3666 203.091 63.9416C203.091 63.7083 203.133 63.4499 203.025 63.2333Z" fill="#004B84"/>
<path d="M203.333 60.6332C203.492 60.4748 203.667 60.3248 203.75 60.1165C203.858 59.9248 203.9 59.6832 203.825 59.4748C203.692 59.2248 203.45 59.0582 203.217 58.9165C203.033 59.1665 202.9 59.4498 202.767 59.7248C202.708 59.8498 202.633 59.9665 202.633 60.1082C202.758 60.2332 202.892 60.3582 203.033 60.4665C203.125 60.5332 203.208 60.6498 203.342 60.6332H203.333Z" fill="#004B84"/>
<path d="M191.833 61.3C191.858 60.9584 191.883 60.6167 191.875 60.275C191.875 59.8834 191.933 59.5 191.967 59.1167C191.917 59.1334 191.867 59.15 191.858 59.2084C191.675 59.6834 191.433 60.1417 191.342 60.6417C191.267 61.1667 191.342 61.6917 191.292 62.2167C191.267 62.4834 191.275 62.7584 191.2 63.025C191.158 63.15 191.042 63.2334 190.933 63.3084C190.667 63.4834 190.392 63.6667 190.15 63.8667C189.867 64.175 189.808 64.6084 189.55 64.9417C189.35 65.1834 189.108 65.3917 188.833 65.525C188.517 65.7417 188.192 65.925 187.867 66.125C187.808 66.1667 187.7 66.2584 187.767 66.3334C188.308 66.4 188.892 66.3417 189.35 66.025C189.717 65.6917 189.833 65.2 190.05 64.775C190.225 64.4417 190.633 64.3667 190.925 64.175C191.375 63.7667 191.575 63.1667 191.725 62.6C191.8 62.1667 191.833 61.725 191.833 61.2917V61.3Z" fill="#004B84"/>
<path d="M213.95 62.3832C214.192 62.4248 214.45 62.2915 214.583 62.0832C214.683 61.8998 214.667 61.6915 214.733 61.4998C214.817 61.3915 214.975 61.4498 215.067 61.3582C215.117 61.2915 215.1 61.1998 215.083 61.1165C214.958 61.1165 214.808 61.0832 214.7 61.1748C214.592 61.2665 214.467 61.3665 214.45 61.5165C214.4 61.6832 214.45 61.9165 214.283 62.0248C214.108 62.0665 213.917 62.0832 213.733 62.0832C213.742 62.2082 213.817 62.3332 213.942 62.3748L213.95 62.3832Z" fill="#004B84"/>
<path d="M224.317 64.3C224.317 64.3 224.3 64.3166 224.292 64.3249C224.258 64.3666 224.25 64.4166 224.242 64.4666C224.217 64.5666 224.175 64.6666 224.133 64.75C224.1 64.8166 224.058 64.875 223.992 64.9083C223.933 64.9416 223.867 64.9416 223.8 64.9333C223.633 64.9083 223.483 64.8083 223.392 64.6666C223.292 64.5166 223.267 64.3333 223.258 64.1583C223.233 63.7583 223.292 63.35 223.342 62.95C223.442 62.2 223.542 61.45 223.642 60.7C223.442 60.8 223.342 61.175 223.267 61.375C223.175 61.6416 223.1 61.9166 223.05 62.1916C222.958 62.6916 222.925 63.2083 222.858 63.7166C222.783 64.3333 222.667 64.9666 222.8 65.5833C222.858 65.85 223 66.1416 223.267 66.2083C223.442 66.25 223.633 66.1833 223.767 66.0666C223.9 65.9499 224 65.7833 224.075 65.625C224.275 65.2 224.392 64.7416 224.433 64.2833C224.4 64.2666 224.35 64.2833 224.325 64.3H224.317Z" fill="#004B84"/>
<path d="M198.941 63.2916C198.808 63.1999 198.666 63.0999 198.5 63.1166C198.341 63.5082 198.166 63.8916 197.983 64.2832C197.958 64.3499 197.941 64.4166 197.925 64.4916C197.958 64.4999 198.025 64.5166 198.058 64.5249C197.875 64.8082 197.725 65.1166 197.625 65.4499C197.591 65.6832 197.591 65.9582 197.766 66.1416C197.875 66.2249 198.025 66.2249 198.158 66.2166C198.441 66.1916 198.625 65.9499 198.808 65.7582C199.075 65.3332 199.308 64.8666 199.333 64.3582C199.333 64.1332 199.358 63.8916 199.258 63.6749C199.191 63.5166 199.066 63.3999 198.941 63.2999V63.2916ZM198.733 65.2666C198.7 65.3166 198.65 65.3582 198.6 65.3916C198.475 65.4749 198.316 65.5082 198.166 65.4832C198.091 65.4749 198.016 65.4416 197.975 65.3749C197.933 65.3082 197.95 65.2249 197.975 65.1499C198.008 65.0249 198.058 64.8916 198.15 64.7916C198.258 64.6666 198.391 64.6666 198.533 64.7332C198.675 64.7916 198.808 64.9249 198.808 65.0749C198.808 65.1416 198.783 65.2082 198.741 65.2582L198.733 65.2666Z" fill="#004B84"/>
<path d="M193.375 63.0165C193.25 63.4665 193.083 63.8998 192.933 64.3332C192.741 64.7748 192.375 65.0998 192.016 65.4165C191.733 65.6582 191.341 65.8415 191.191 66.1998C191.316 66.2082 191.45 66.1998 191.575 66.1748C191.975 66.0915 192.375 65.9415 192.708 65.6832C192.975 65.3915 193.1 64.9998 193.241 64.6415C193.416 64.0998 193.55 63.5332 193.6 62.9665C193.616 62.8832 193.575 62.8082 193.55 62.7332C193.433 62.7748 193.408 62.9082 193.375 63.0165Z" fill="#004B84"/>
<path d="M205.217 62.9665C205.1 63.4332 204.917 63.8832 204.758 64.3332C204.492 64.8998 203.992 65.3082 203.508 65.6832C203.333 65.8248 203.125 65.9498 203.042 66.1665C203.058 66.1832 203.1 66.2082 203.117 66.2165C203.592 66.1748 204.058 66.0082 204.458 65.7498C204.675 65.5998 204.775 65.3498 204.892 65.1248C205.167 64.4498 205.342 63.7415 205.425 63.0165C205.442 62.9165 205.417 62.8248 205.375 62.7332C205.267 62.7582 205.242 62.8748 205.217 62.9665Z" fill="#004B84"/>
<path d="M186.791 62.9415C186.666 63.0915 186.608 63.2832 186.508 63.4415C186.3 63.7832 186.2 64.1915 186.183 64.5832C186.166 65.0082 186.216 65.4415 186.108 65.8582C186.041 66.1165 185.916 66.3582 185.766 66.5832C185.491 66.9832 185.125 67.3165 184.7 67.5332C184.483 67.6415 184.25 67.7249 184.008 67.7665C183.741 67.8165 183.475 67.7915 183.208 67.7999C182.866 67.7999 182.541 67.6332 182.291 67.4165C182.075 67.2249 181.983 66.7999 181.975 66.5249C181.975 66.1582 182.133 65.7665 182.266 65.4415C182.358 65.2165 182.466 64.9999 182.566 64.7832C182.658 64.5832 182.816 64.3415 182.7 64.1165C182.508 64.3665 182.358 64.6665 182.216 64.9499C182.075 65.2332 181.925 65.4999 181.816 65.7915C181.483 66.6665 181.241 67.8165 181.875 68.6165C182.091 68.8915 182.416 69.0415 182.75 69.1082C183.1 69.1082 183.45 69.1332 183.8 69.0499C184.075 68.9665 184.341 68.8415 184.591 68.6915C185 68.4499 185.358 68.0332 185.633 67.6499C185.925 67.2499 186.158 66.7999 186.325 66.3332C186.516 65.8082 186.633 65.2665 186.7 64.7165C186.733 64.4499 186.741 64.1749 186.766 63.9082C186.791 63.6332 186.8 63.3165 186.866 63.0582C186.883 63.0165 186.866 62.8915 186.8 62.9332L186.791 62.9415Z" fill="#004B84"/>
<path d="M183.708 65.3999C183.95 65.5249 184.166 65.6916 184.383 65.8582C184.483 65.8332 184.55 65.7416 184.625 65.6749C184.825 65.4582 185.025 65.1832 184.966 64.8749C184.966 64.6416 184.766 64.4999 184.608 64.3582C184.491 64.2582 184.366 64.1499 184.208 64.1499C184.008 64.4582 183.833 64.7916 183.708 65.1332C183.675 65.2166 183.591 65.3499 183.708 65.3999Z" fill="#004B84"/>
<path d="M194.983 20.7917C199.091 20.7917 203.2 20.7917 207.316 20.7917C208.625 22.7417 209.783 24.8251 210.391 27.1084C210.6 27.9001 210.733 28.7167 210.791 29.5417C210.791 29.9584 210.866 30.3667 210.808 30.7834C210.733 33.4084 209.8 35.9417 208.516 38.2167C208.2 38.7667 207.875 39.3084 207.516 39.8334C207.425 39.8584 207.325 39.8501 207.225 39.8584C203.675 39.8584 200.125 39.8584 196.583 39.8584C196.816 39.6834 197.091 39.5667 197.333 39.4084C198.208 38.8751 199.05 38.2667 199.766 37.5251C201.091 36.2501 202.066 34.5917 202.475 32.7834C203.058 30.2834 202.458 27.5917 201.05 25.4751C199.741 23.4667 197.75 21.9584 195.55 21.0417C195.358 20.9667 195.158 20.8917 194.975 20.7917H194.983Z" fill="#004B84"/>
<path d="M186.05 29.7083C186.616 28.3916 187.383 27.175 188.291 26.0667C189.358 26.0833 198.725 26.125 199.966 26.125C199.966 26.2 199.966 26.275 199.966 26.3583C197.825 27.1083 195.916 28.5333 194.641 30.4083C193.225 32.45 192.608 35.0917 193.183 37.5333C193.683 39.7417 195.1 41.6666 196.908 43C197.208 43.25 197.55 43.45 197.866 43.675C197.95 43.725 198.025 43.8 198.125 43.7833C203.041 43.775 207.958 43.7917 212.875 43.775C213.833 43.2666 214.716 42.6083 215.491 41.8416C216.233 41.0583 216.883 40.1666 217.325 39.1666C217.8 38.15 218.041 37.0333 218.091 35.9083C218.15 33.8083 217.383 31.725 216.075 30.0917C214.808 28.45 213.066 27.2417 211.216 26.35C211.216 26.3 211.216 26.2083 211.216 26.1583C213 26.1583 221.483 26.1333 222.6 26.1333C223.616 27.5583 224.441 29.125 224.991 30.7833C225.65 32.7083 225.925 34.7583 225.775 36.7833C225.625 38.825 225.008 40.825 224.033 42.625C223.6 43.45 223.066 44.2083 222.533 44.9666C214.983 44.9666 192.041 45 188.741 45C187.35 43.325 186.208 41.4166 185.575 39.325C185.25 38.3 185.05 37.2333 184.966 36.1583C184.908 35.6416 184.95 35.1166 184.933 34.5917C185.008 32.9166 185.383 31.25 186.05 29.7083Z" fill="#004B84"/>
<path d="M205 46.0418C206.775 45.9334 208.558 46.9084 209.442 48.4418C210.408 50.0418 210.325 52.1918 209.242 53.7084C208.608 54.6001 207.683 55.2834 206.633 55.5918C205.775 55.8501 204.842 55.8668 203.975 55.6334C202.783 55.3168 201.733 54.5334 201.083 53.4834C200.133 52.0001 200.108 49.9834 201.008 48.4668C201.817 47.0501 203.367 46.1001 205 46.0334V46.0418Z" fill="#004B84"/>
</g>
<defs>
<clipPath id="clip0_42_49190">
<rect width="249" height="156" rx="10" fill="white"/>
</clipPath>
</defs>
</svg>
